<?xml version="1.0" standalone="no"?>
<!DOCTYPE svg PUBLIC "-//W3C//DTD SVG 20010904//EN"
 "http://www.w3.org/TR/2001/REC-SVG-20010904/DTD/svg10.dtd">
<svg version="1.0" xmlns="http://www.w3.org/2000/svg"
 width="300.000000pt" height="300.000000pt" viewBox="0 0 300.000000 300.000000"
 preserveAspectRatio="xMidYMid meet">
<metadata>
Created by potrace 1.10, written by Peter Selinger 2001-2011
</metadata>
<g transform="translate(0.000000,300.000000) scale(0.100000,-0.100000)"
fill="#000000" stroke="none">
<path d="M1465 2633 c-57 -15 -113 -91 -101 -138 12 -49 69 -42 86 10 15 46
54 60 84 29 13 -12 16 -39 16 -133 0 -126 -5 -141 -51 -141 -29 0 -45 14 -50
44 -2 10 -13 25 -24 32 -18 12 -24 11 -44 -2 -19 -13 -22 -22 -17 -47 20 -98
128 -147 207 -94 57 37 69 75 69 210 0 132 -11 172 -57 205 -31 22 -86 34
-118 25z"/>
<path d="M960 2422 c-23 -12 -43 -35 -58 -64 -36 -71 -21 -111 81 -216 92 -94
120 -112 172 -112 92 0 159 86 134 173 -10 34 -166 199 -211 223 -36 19 -76
18 -118 -4z m168 -156 c83 -85 92 -100 70 -128 -31 -38 -47 -31 -139 59 -49
47 -89 94 -89 104 0 10 7 25 16 33 31 32 58 19 142 -68z"/>
<path d="M1925 2429 c-11 -6 -62 -53 -113 -103 -101 -99 -119 -135 -102 -195
17 -61 71 -101 135 -101 52 0 80 18 172 112 99 102 115 142 84 212 -10 24 -31
52 -45 61 -33 22 -105 29 -131 14z m89 -95 c9 -8 16 -23 16 -33 0 -10 -40 -57
-89 -104 -92 -90 -108 -97 -138 -59 -23 28 -14 43 69 128 84 87 111 100 142
68z"/>
<path d="M753 1940 c-83 -50 -83 -180 1 -235 37 -24 295 -24 332 0 84 55 84
185 1 235 -60 37 -116 18 -103 -35 5 -18 15 -27 37 -32 48 -9 62 -50 29 -83
-18 -18 -33 -20 -130 -20 -97 0 -112 2 -130 20 -33 33 -19 74 29 83 22 5 32
14 37 32 13 53 -43 72 -103 35z"/>
<path d="M1913 1940 c-107 -65 -66 -249 57 -252 61 -2 67 57 8 84 -20 10 -39
26 -43 37 -8 26 11 61 33 62 16 0 202 0 229 -1 18 0 35 -38 28 -61 -4 -12 -22
-27 -40 -35 -41 -17 -49 -28 -41 -58 7 -28 30 -36 71 -25 108 29 128 191 32
249 -28 17 -51 20 -167 20 -116 0 -139 -3 -167 -20z"/>
<path d="M1105 1608 c-11 -6 -62 -52 -113 -102 -101 -99 -119 -135 -102 -195
24 -84 122 -126 198 -87 50 26 189 178 200 219 18 65 -12 132 -71 161 -40 18
-83 20 -112 4z m87 -95 c10 -9 18 -24 18 -33 0 -18 -171 -190 -189 -190 -17 0
-51 38 -51 57 0 24 160 183 184 183 11 0 28 -7 38 -17z"/>
<path d="M1782 1603 c-58 -29 -88 -96 -70 -160 11 -41 150 -193 200 -219 76
-39 174 3 198 87 17 60 -1 96 -102 195 -51 51 -103 97 -115 103 -31 16 -72 13
-111 -6z m165 -155 c46 -46 83 -91 83 -100 0 -20 -34 -58 -51 -58 -17 0 -189
171 -189 189 0 22 30 51 54 51 12 0 53 -32 103 -82z"/>
<path d="M1465 1473 c-35 -9 -72 -41 -89 -77 -24 -50 -23 -257 2 -306 52 -104
192 -104 244 0 25 49 26 256 2 306 -27 58 -100 93 -159 77z m69 -99 c13 -12
16 -39 16 -133 0 -126 -5 -141 -50 -141 -45 0 -50 15 -50 141 0 124 8 149 50
149 10 0 26 -7 34 -16z"/>
<path d="M10 751 c-16 -30 -12 -41 13 -38 22 2 22 0 25 -130 2 -101 6 -134 17
-143 27 -22 17 -33 -25 -26 -44 7 -48 2 -24 -32 13 -19 24 -22 84 -22 72 0
100 14 100 49 0 28 -21 41 -67 41 l-43 0 0 141 c0 77 -5 149 -10 160 -6 11
-21 19 -35 19 -14 0 -29 -8 -35 -19z"/>
<path d="M359 742 c-94 -49 -133 -162 -90 -257 39 -86 143 -139 227 -116 84
23 132 71 155 155 23 84 -30 188 -116 227 -58 27 -113 24 -176 -9z m161 -82
c57 -41 64 -123 14 -174 -74 -73 -194 -21 -194 84 0 34 6 48 34 76 28 28 42
34 76 34 26 0 53 -8 70 -20z"/>
<path d="M852 762 c-20 -13 -143 -344 -137 -369 12 -49 75 -33 89 23 6 23 11
24 76 24 65 0 70 -1 76 -24 13 -55 74 -72 89 -25 7 21 -109 342 -132 365 -16
16 -41 18 -61 6z m51 -79 c8 -16 18 -39 22 -53 8 -24 7 -24 -17 -8 -23 15 -27
15 -47 1 -32 -22 -35 -11 -12 41 23 53 35 57 54 19z m-9 -97 c3 -13 9 -31 12
-40 5 -13 -1 -16 -26 -16 -25 0 -31 3 -26 16 3 9 9 27 12 40 8 31 20 31 28 0z
m-62 -70 c17 -24 17 -24 -22 -45 -22 -11 -40 -19 -40 -16 0 12 33 85 39 85 3
0 14 -11 23 -24z m144 -24 l12 -41 -39 20 c-38 21 -38 21 -21 45 23 31 34 26
48 -24z"/>
<path d="M1156 754 c-13 -13 -16 -44 -16 -188 0 -213 -1 -212 116 -203 56 4
84 12 109 29 123 84 105 317 -28 367 -45 17 -163 14 -181 -5z m51 -61 c-9 -9
-17 -11 -21 -5 -3 6 2 18 11 28 12 12 18 13 21 4 2 -6 -2 -19 -11 -27z m123
-33 c26 -26 34 -60 27 -118 -6 -57 -41 -92 -93 -92 l-34 0 0 115 0 115 40 0
c26 0 47 -7 60 -20z"/>
<path d="M1552 758 c-8 -8 -12 -66 -12 -195 l0 -183 25 -12 c21 -9 28 -8 45 7
19 17 20 31 20 191 0 144 -3 175 -16 188 -18 19 -45 21 -62 4z"/>
<path d="M1732 758 c-9 -9 -12 -63 -12 -195 0 -172 1 -183 20 -193 14 -8 26
-8 40 0 17 9 20 23 22 116 l3 106 75 -111 c41 -61 83 -114 93 -117 11 -3 27 2
38 12 17 16 19 32 19 186 0 98 -4 178 -10 189 -12 21 -50 25 -68 7 -8 -8 -12
-48 -13 -112 0 -82 -2 -98 -12 -83 -7 10 -41 60 -77 110 -65 92 -92 111 -118
85z m82 -101 c41 -60 45 -72 15 -56 -17 9 -25 7 -45 -12 l-24 -22 0 71 c0 40
4 72 9 72 5 0 25 -24 45 -53z m176 -160 c0 -80 -11 -87 -52 -30 -53 73 -53 73
-20 67 19 -4 32 -1 41 10 21 25 31 9 31 -47z"/>
<path d="M2255 758 c-80 -28 -135 -106 -135 -191 0 -58 11 -86 51 -131 44 -51
84 -69 151 -69 99 0 164 63 176 170 7 62 -7 73 -87 73 -72 0 -91 -10 -91 -47
0 -27 33 -47 66 -40 34 6 31 -16 -7 -47 -38 -32 -76 -33 -120 -3 -45 30 -64
85 -45 131 28 68 94 93 167 62 43 -18 69 -6 69 33 0 54 -113 88 -195 59z m199
-204 c10 -26 -4 -37 -25 -18 -10 9 -19 21 -19 26 0 15 38 8 44 -8z"/>
<path d="M2572 438 c-21 -21 -14 -57 14 -70 23 -11 29 -10 45 11 23 28 23 35
3 55 -18 19 -45 21 -62 4z"/>
<path d="M2754 442 c-21 -14 -23 -41 -5 -64 16 -20 22 -21 45 -10 17 8 26 19
26 35 0 38 -36 60 -66 39z"/>
<path d="M2918 425 c-10 -22 -9 -29 9 -46 38 -38 89 3 63 51 -16 29 -58 26
-72 -5z"/>
</g>
</svg>
