<svg xmlns="http://www.w3.org/2000/svg" xmlns:xlink="http://www.w3.org/1999/xlink" width="500" zoomAndPan="magnify" viewBox="0 0 375 374.999991" height="500" preserveAspectRatio="xMidYMid meet" version="1.0"><defs><g/><clipPath id="71d45c5390"><path d="M 45.113281 93.902344 L 172.613281 93.902344 L 172.613281 185.402344 L 45.113281 185.402344 Z M 45.113281 93.902344 " clip-rule="nonzero"/></clipPath><clipPath id="6cf0247ce3"><path d="M 95.613281 153 L 184.113281 153 L 184.113281 185.152344 L 95.613281 185.152344 Z M 95.613281 153 " clip-rule="nonzero"/></clipPath><clipPath id="80eb000ab2"><path d="M 98 143.152344 L 182 143.152344 L 182 185.152344 L 98 185.152344 Z M 98 143.152344 " clip-rule="nonzero"/></clipPath><clipPath id="c9a25667e3"><path d="M 176 184 L 178 184 L 178 185.152344 L 176 185.152344 Z M 176 184 " clip-rule="nonzero"/></clipPath><clipPath id="14506db2be"><path d="M 104 149 L 165 149 L 165 185.152344 L 104 185.152344 Z M 104 149 " clip-rule="nonzero"/></clipPath><clipPath id="3eb760b918"><path d="M 110 155 L 169 155 L 169 185.152344 L 110 185.152344 Z M 110 155 " clip-rule="nonzero"/></clipPath><clipPath id="df94cb1681"><path d="M 114 179 L 117 179 L 117 185.152344 L 114 185.152344 Z M 114 179 " clip-rule="nonzero"/></clipPath><clipPath id="2ebb3749e2"><path d="M 95.613281 190.324219 L 184.113281 190.324219 L 184.113281 223 L 95.613281 223 Z M 95.613281 190.324219 " clip-rule="nonzero"/></clipPath><clipPath id="85f090c57e"><path d="M 98 190.324219 L 182 190.324219 L 182 232.324219 L 98 232.324219 Z M 98 190.324219 " clip-rule="nonzero"/></clipPath><clipPath id="58cc7cba1b"><path d="M 102 190.324219 L 104 190.324219 L 104 191 L 102 191 Z M 102 190.324219 " clip-rule="nonzero"/></clipPath><clipPath id="ddd1e8082a"><path d="M 176 190.324219 L 178 190.324219 L 178 192 L 176 192 Z M 176 190.324219 " clip-rule="nonzero"/></clipPath><clipPath id="985ea5fe1d"><path d="M 176 190.324219 L 178 190.324219 L 178 191 L 176 191 Z M 176 190.324219 " clip-rule="nonzero"/></clipPath><clipPath id="bd58715de6"><path d="M 104 190.324219 L 165 190.324219 L 165 227 L 104 227 Z M 104 190.324219 " clip-rule="nonzero"/></clipPath><clipPath id="033aab8bdf"><path d="M 110 190.324219 L 169 190.324219 L 169 220 L 110 220 Z M 110 190.324219 " clip-rule="nonzero"/></clipPath><clipPath id="84756d57bc"><path d="M 114 190.324219 L 117 190.324219 L 117 197 L 114 197 Z M 114 190.324219 " clip-rule="nonzero"/></clipPath><clipPath id="8271a43e1c"><path d="M 45.113281 189.671875 L 172.613281 189.671875 L 172.613281 281.089844 L 45.113281 281.089844 Z M 45.113281 189.671875 " clip-rule="nonzero"/></clipPath><clipPath id="7c82bbb531"><path d="M 146.4375 139.613281 L 184.144531 139.613281 L 184.144531 235.386719 L 146.4375 235.386719 Z M 146.4375 139.613281 " clip-rule="nonzero"/></clipPath><clipPath id="b40c704af1"><path d="M 111 197 L 135 197 L 135 222 L 111 222 Z M 111 197 " clip-rule="nonzero"/></clipPath><clipPath id="3dc702b5b6"><path d="M 126.410156 197.796875 L 134.757812 206.144531 L 119.710938 221.1875 L 111.367188 212.84375 Z M 126.410156 197.796875 " clip-rule="nonzero"/></clipPath><clipPath id="1f5aea0724"><path d="M 134.75 224.722656 L 156.027344 224.722656 L 156.027344 228.542969 L 134.75 228.542969 Z M 134.75 224.722656 " clip-rule="nonzero"/></clipPath></defs><g clip-path="url(#71d45c5390)"><path fill="#2c17e9" d="M 126.3125 93.914062 L 150.257812 93.914062 C 152.992188 93.914062 155.210938 96.125 155.222656 98.859375 C 155.222656 98.875 155.222656 98.886719 155.222656 98.902344 L 156.355469 115.105469 C 156.382812 115.457031 156.625 115.75 156.964844 115.835938 C 162.128906 117.1875 167.066406 119.078125 171.71875 121.457031 C 171.722656 121.457031 171.726562 121.460938 171.726562 121.460938 C 172.171875 121.691406 172.300781 122.269531 172 122.664062 L 160.660156 137.558594 C 160.433594 137.855469 160.03125 137.964844 159.6875 137.8125 C 157.753906 136.972656 155.757812 136.242188 153.710938 135.625 C 151.09375 134.84375 148.390625 134.253906 145.621094 133.875 C 143.960938 133.648438 142.277344 133.496094 140.574219 133.425781 C 139.816406 133.394531 139.050781 133.375 138.285156 133.375 C 136.8125 133.375 135.351562 133.4375 133.910156 133.554688 C 118.183594 134.820312 104.371094 142.863281 95.390625 154.757812 C 88.601562 163.75 84.578125 174.945312 84.578125 187.082031 C 84.578125 216.746094 108.625 240.789062 138.285156 240.789062 C 145.894531 240.789062 153.132812 239.207031 159.691406 236.351562 C 160.03125 236.203125 160.433594 236.308594 160.660156 236.605469 L 161.722656 238.003906 L 171.992188 251.492188 C 172.296875 251.894531 172.167969 252.476562 171.71875 252.707031 C 171.667969 252.734375 171.613281 252.761719 171.558594 252.792969 C 171.484375 252.828125 171.414062 252.867188 171.339844 252.902344 C 169.003906 254.078125 166.597656 255.132812 164.128906 256.054688 C 161.796875 256.929688 159.40625 257.691406 156.964844 258.328125 C 156.625 258.417969 156.382812 258.710938 156.355469 259.058594 L 155.222656 275.261719 C 155.222656 275.277344 155.222656 275.289062 155.222656 275.308594 C 155.210938 278.039062 152.992188 280.25 150.257812 280.25 L 126.3125 280.25 C 123.578125 280.25 121.359375 278.039062 121.347656 275.308594 C 121.347656 275.289062 121.34375 275.277344 121.34375 275.261719 L 120.210938 259.058594 C 120.1875 258.710938 119.945312 258.417969 119.601562 258.328125 C 113.042969 256.613281 106.835938 254.015625 101.121094 250.664062 C 100.816406 250.488281 100.4375 250.523438 100.171875 250.753906 L 87.910156 261.414062 C 87.898438 261.425781 87.886719 261.433594 87.878906 261.445312 C 85.9375 263.367188 82.804688 263.363281 80.871094 261.429688 L 63.9375 244.496094 C 62.003906 242.5625 62 239.429688 63.925781 237.488281 C 63.933594 237.480469 63.945312 237.46875 63.953125 237.457031 L 74.613281 225.195312 C 74.84375 224.933594 74.875 224.550781 74.699219 224.246094 C 71.351562 218.53125 68.753906 212.328125 67.039062 205.765625 C 66.949219 205.425781 66.65625 205.179688 66.304688 205.15625 L 50.105469 204.023438 C 50.089844 204.019531 50.074219 204.019531 50.0625 204.019531 C 47.328125 204.007812 45.117188 201.792969 45.117188 199.054688 L 45.117188 175.109375 C 45.117188 172.375 47.328125 170.15625 50.0625 170.144531 C 50.074219 170.144531 50.089844 170.144531 50.105469 170.140625 L 66.304688 169.011719 C 66.65625 168.988281 66.949219 168.742188 67.039062 168.402344 C 68.753906 161.835938 71.351562 155.632812 74.699219 149.917969 C 74.875 149.617188 74.84375 149.234375 74.613281 148.96875 L 72.816406 146.902344 L 63.953125 136.707031 C 63.945312 136.695312 63.933594 136.6875 63.925781 136.675781 C 62 134.738281 62.003906 131.601562 63.9375 129.667969 L 70.550781 123.054688 L 80.871094 112.738281 C 82.804688 110.804688 85.9375 110.796875 87.878906 112.722656 C 87.886719 112.734375 87.898438 112.742188 87.910156 112.75 L 100.171875 123.414062 C 100.4375 123.640625 100.816406 123.675781 101.121094 123.5 C 106.054688 120.605469 111.359375 118.273438 116.945312 116.585938 C 117.824219 116.320312 118.710938 116.070312 119.601562 115.835938 C 119.945312 115.75 120.1875 115.453125 120.210938 115.105469 L 120.382812 112.703125 L 120.519531 110.699219 L 120.941406 104.695312 L 121.34375 98.902344 C 121.34375 98.886719 121.347656 98.875 121.347656 98.859375 C 121.359375 96.125 123.578125 93.914062 126.3125 93.914062 " fill-opacity="1" fill-rule="nonzero"/></g><g clip-path="url(#6cf0247ce3)"><path fill="#ffa100" d="M 171.203125 216.078125 C 179.527344 207.734375 184.136719 196.628906 184.136719 184.804688 L 182.902344 184.804688 C 182.902344 196.289062 178.433594 207.089844 170.324219 215.199219 C 162.214844 223.308594 151.359375 227.832031 139.875 227.832031 C 128.394531 227.832031 117.574219 223.363281 109.464844 215.234375 C 101.339844 207.109375 96.851562 196.308594 96.851562 184.804688 C 96.851562 173.324219 101.320312 162.503906 109.449219 154.394531 L 108.570312 153.515625 C 100.226562 161.878906 95.613281 172.984375 95.613281 184.804688 C 95.613281 196.628906 100.226562 207.753906 108.585938 216.113281 C 116.949219 224.476562 128.054688 229.066406 139.875 229.066406 C 151.683594 229.066406 162.824219 224.421875 171.183594 216.097656 C 171.183594 216.097656 171.183594 216.097656 171.203125 216.078125 Z M 171.203125 216.078125 " fill-opacity="1" fill-rule="nonzero"/></g><g clip-path="url(#80eb000ab2)"><path fill="#ffa100" d="M 110.472656 214.230469 C 110.488281 214.25 110.488281 214.25 110.488281 214.25 C 118.347656 222.089844 128.769531 226.414062 139.875 226.414062 C 150.984375 226.414062 161.425781 222.089844 169.28125 214.230469 C 177.140625 206.371094 181.464844 195.929688 181.464844 184.824219 L 179.3125 184.824219 C 179.3125 195.339844 175.203125 205.242188 167.757812 212.707031 C 160.3125 220.152344 150.410156 224.257812 139.875 224.257812 C 129.34375 224.242188 119.441406 220.152344 112.015625 212.707031 C 104.566406 205.257812 100.441406 195.320312 100.441406 184.804688 C 100.441406 174.273438 104.550781 164.371094 111.996094 156.925781 C 119.441406 149.480469 129.34375 145.371094 139.875 145.371094 C 150.410156 145.371094 160.3125 149.496094 167.757812 156.925781 C 175.203125 164.371094 179.3125 174.273438 179.3125 184.804688 L 181.464844 184.804688 C 181.464844 173.71875 177.160156 163.277344 169.300781 155.417969 C 169.300781 155.417969 169.300781 155.417969 169.28125 155.398438 C 169.28125 155.398438 169.28125 155.398438 169.265625 155.382812 C 161.441406 147.558594 150.964844 143.21875 139.875 143.21875 C 128.769531 143.21875 118.328125 147.542969 110.472656 155.398438 C 102.613281 163.257812 98.289062 173.699219 98.289062 184.804688 C 98.289062 195.894531 102.628906 206.371094 110.472656 214.230469 Z M 110.472656 214.230469 " fill-opacity="1" fill-rule="nonzero"/></g><path fill="#ffa100" d="M 106.9375 167.761719 C 107.0625 167.761719 107.167969 167.691406 107.222656 167.582031 C 107.332031 167.386719 107.421875 167.207031 107.527344 167.007812 C 107.617188 166.847656 107.5625 166.648438 107.402344 166.558594 C 107.242188 166.46875 107.042969 166.523438 106.953125 166.683594 C 106.847656 166.882812 106.738281 167.082031 106.632812 167.277344 C 106.542969 167.4375 106.613281 167.636719 106.773438 167.726562 C 106.828125 167.742188 106.882812 167.761719 106.9375 167.761719 Z M 106.9375 167.761719 " fill-opacity="1" fill-rule="nonzero"/><path fill="#ffa100" d="M 105.519531 170.738281 C 105.644531 170.738281 105.769531 170.667969 105.824219 170.542969 C 105.914062 170.34375 106.003906 170.148438 106.074219 169.933594 C 106.148438 169.769531 106.074219 169.574219 105.914062 169.503906 C 105.753906 169.429688 105.554688 169.503906 105.484375 169.664062 C 105.394531 169.859375 105.304688 170.078125 105.214844 170.273438 C 105.140625 170.453125 105.214844 170.652344 105.394531 170.722656 C 105.429688 170.738281 105.484375 170.738281 105.519531 170.738281 Z M 105.519531 170.738281 " fill-opacity="1" fill-rule="nonzero"/><path fill="#ffa100" d="M 108.585938 164.910156 C 108.695312 164.910156 108.800781 164.855469 108.855469 164.765625 C 108.980469 164.585938 109.089844 164.40625 109.214844 164.226562 C 109.324219 164.082031 109.269531 163.867188 109.125 163.761719 C 108.980469 163.652344 108.765625 163.707031 108.660156 163.851562 C 108.53125 164.03125 108.40625 164.226562 108.300781 164.40625 C 108.210938 164.550781 108.265625 164.765625 108.40625 164.855469 C 108.460938 164.890625 108.53125 164.910156 108.585938 164.910156 Z M 108.585938 164.910156 " fill-opacity="1" fill-rule="nonzero"/><path fill="#ffa100" d="M 102.703125 179.226562 C 102.667969 179.441406 102.628906 179.65625 102.613281 179.890625 C 102.59375 180.070312 102.71875 180.230469 102.898438 180.265625 C 102.917969 180.265625 102.933594 180.265625 102.933594 180.265625 C 103.097656 180.265625 103.242188 180.140625 103.257812 179.980469 C 103.292969 179.765625 103.3125 179.550781 103.347656 179.335938 C 103.382812 179.15625 103.257812 178.976562 103.078125 178.957031 C 102.898438 178.941406 102.738281 179.046875 102.703125 179.226562 Z M 102.703125 179.226562 " fill-opacity="1" fill-rule="nonzero"/><path fill="#ffa100" d="M 102.378906 182.527344 C 102.359375 182.742188 102.359375 182.976562 102.34375 183.191406 C 102.34375 183.371094 102.46875 183.53125 102.667969 183.53125 L 102.683594 183.53125 C 102.863281 183.53125 103.007812 183.390625 103.007812 183.210938 C 103.023438 182.996094 103.023438 182.777344 103.042969 182.5625 C 103.023438 182.382812 102.898438 182.242188 102.71875 182.222656 C 102.539062 182.203125 102.378906 182.347656 102.378906 182.527344 Z M 102.378906 182.527344 " fill-opacity="1" fill-rule="nonzero"/><path fill="#ffa100" d="M 151.84375 149.875 C 152.058594 149.945312 152.257812 150.019531 152.453125 150.089844 C 152.488281 150.109375 152.527344 150.109375 152.5625 150.109375 C 152.703125 150.109375 152.832031 150.019531 152.867188 149.890625 C 152.921875 149.710938 152.847656 149.535156 152.667969 149.460938 C 152.453125 149.390625 152.257812 149.316406 152.042969 149.246094 C 151.863281 149.191406 151.683594 149.28125 151.628906 149.445312 C 151.574219 149.640625 151.664062 149.820312 151.84375 149.875 Z M 151.84375 149.875 " fill-opacity="1" fill-rule="nonzero"/><path fill="#ffa100" d="M 110.777344 162.109375 C 110.902344 161.929688 111.042969 161.769531 111.1875 161.589844 C 111.296875 161.445312 111.277344 161.25 111.132812 161.125 C 110.992188 161.015625 110.792969 161.035156 110.667969 161.175781 C 110.523438 161.355469 110.398438 161.519531 110.253906 161.699219 C 110.128906 161.839844 110.164062 162.039062 110.308594 162.164062 C 110.363281 162.21875 110.433594 162.234375 110.507812 162.234375 C 110.597656 162.234375 110.703125 162.199219 110.777344 162.109375 Z M 110.777344 162.109375 " fill-opacity="1" fill-rule="nonzero"/><path fill="#ffa100" d="M 112.875 159.617188 C 113.019531 159.453125 113.179688 159.292969 113.324219 159.148438 C 113.449219 159.023438 113.449219 158.808594 113.324219 158.683594 C 113.199219 158.558594 112.984375 158.558594 112.855469 158.683594 C 112.695312 158.84375 112.550781 159.007812 112.390625 159.167969 C 112.265625 159.292969 112.265625 159.507812 112.410156 159.632812 C 112.480469 159.6875 112.570312 159.722656 112.640625 159.722656 C 112.730469 159.722656 112.820312 159.6875 112.875 159.617188 Z M 112.875 159.617188 " fill-opacity="1" fill-rule="nonzero"/><path fill="#ffa100" d="M 103.457031 177.019531 C 103.472656 177.019531 103.507812 177.019531 103.527344 177.019531 C 103.671875 177.019531 103.8125 176.910156 103.851562 176.769531 C 103.902344 176.554688 103.941406 176.339844 103.992188 176.140625 C 104.03125 175.941406 103.921875 175.765625 103.742188 175.726562 C 103.5625 175.691406 103.382812 175.800781 103.347656 175.980469 C 103.292969 176.195312 103.242188 176.410156 103.203125 176.625 C 103.167969 176.804688 103.277344 176.984375 103.457031 177.019531 Z M 103.457031 177.019531 " fill-opacity="1" fill-rule="nonzero"/><path fill="#ffa100" d="M 149.332031 149.121094 C 149.367188 149.121094 149.386719 149.136719 149.421875 149.136719 C 149.566406 149.136719 149.707031 149.050781 149.746094 148.886719 C 149.796875 148.707031 149.691406 148.527344 149.511719 148.492188 C 149.296875 148.4375 149.082031 148.386719 148.867188 148.332031 C 148.6875 148.296875 148.507812 148.402344 148.472656 148.566406 C 148.417969 148.742188 148.523438 148.921875 148.703125 148.960938 C 148.917969 149.011719 149.132812 149.066406 149.332031 149.121094 Z M 149.332031 149.121094 " fill-opacity="1" fill-rule="nonzero"/><path fill="#ffa100" d="M 104.261719 173.824219 C 104.300781 173.84375 104.335938 173.84375 104.371094 173.84375 C 104.515625 173.84375 104.640625 173.753906 104.695312 173.609375 C 104.765625 173.394531 104.820312 173.199219 104.890625 172.984375 C 104.945312 172.804688 104.855469 172.625 104.675781 172.570312 C 104.496094 172.515625 104.316406 172.605469 104.261719 172.785156 C 104.191406 173 104.121094 173.214844 104.046875 173.414062 C 103.992188 173.59375 104.082031 173.773438 104.261719 173.824219 Z M 104.261719 173.824219 " fill-opacity="1" fill-rule="nonzero"/><path fill="#ffa100" d="M 155.46875 151.34375 C 155.523438 151.363281 155.558594 151.382812 155.613281 151.382812 C 155.738281 151.382812 155.863281 151.308594 155.917969 151.183594 C 155.988281 151.023438 155.917969 150.824219 155.753906 150.753906 C 155.558594 150.664062 155.359375 150.574219 155.144531 150.484375 C 154.984375 150.414062 154.785156 150.484375 154.714844 150.644531 C 154.644531 150.808594 154.714844 151.003906 154.875 151.078125 C 155.074219 151.167969 155.269531 151.253906 155.46875 151.34375 Z M 155.46875 151.34375 " fill-opacity="1" fill-rule="nonzero"/><path fill="#ffa100" d="M 166 158.738281 C 166.035156 158.773438 166.089844 158.828125 166.105469 158.84375 C 166.179688 158.917969 166.25 158.933594 166.339844 158.933594 C 166.429688 158.933594 166.503906 158.898438 166.574219 158.84375 C 166.699219 158.71875 166.699219 158.503906 166.574219 158.378906 C 166.539062 158.34375 166.484375 158.289062 166.449219 158.253906 C 166.324219 158.144531 166.214844 158.019531 166.105469 157.910156 C 165.980469 157.785156 165.765625 157.785156 165.640625 157.910156 C 165.515625 158.039062 165.515625 158.253906 165.640625 158.378906 C 165.75 158.484375 165.875 158.628906 166 158.738281 Z M 166 158.738281 " fill-opacity="1" fill-rule="nonzero"/><path fill="#ffa100" d="M 146.15625 148.4375 C 146.175781 148.4375 146.191406 148.4375 146.210938 148.4375 C 146.371094 148.4375 146.515625 148.332031 146.53125 148.167969 C 146.570312 147.992188 146.445312 147.8125 146.265625 147.792969 C 146.046875 147.757812 145.832031 147.722656 145.601562 147.683594 C 145.421875 147.648438 145.257812 147.773438 145.222656 147.953125 C 145.1875 148.132812 145.332031 148.296875 145.511719 148.332031 C 145.726562 148.367188 145.941406 148.402344 146.15625 148.4375 Z M 146.15625 148.4375 " fill-opacity="1" fill-rule="nonzero"/><path fill="#ffa100" d="M 115.226562 157.320312 C 115.386719 157.175781 115.546875 157.03125 115.710938 156.890625 C 115.851562 156.765625 115.871094 156.566406 115.746094 156.421875 C 115.621094 156.28125 115.421875 156.261719 115.277344 156.386719 C 115.117188 156.53125 114.9375 156.675781 114.777344 156.835938 C 114.652344 156.960938 114.632812 157.175781 114.757812 157.300781 C 114.832031 157.375 114.921875 157.410156 115.011719 157.410156 C 115.082031 157.410156 115.171875 157.375 115.226562 157.320312 Z M 115.226562 157.320312 " fill-opacity="1" fill-rule="nonzero"/><path fill="#ffa100" d="M 177.445312 184.734375 C 177.445312 184.554688 177.304688 184.410156 177.125 184.410156 C 176.945312 184.410156 176.800781 184.554688 176.800781 184.734375 L 176.800781 184.804688 L 177.464844 184.804688 Z M 177.445312 184.734375 " fill-opacity="1" fill-rule="nonzero"/><path fill="#ffa100" d="M 117.738281 155.257812 C 117.917969 155.132812 118.078125 155.003906 118.257812 154.863281 C 118.402344 154.753906 118.4375 154.558594 118.328125 154.394531 C 118.222656 154.234375 118.023438 154.214844 117.863281 154.324219 C 117.683594 154.449219 117.503906 154.59375 117.324219 154.71875 C 117.179688 154.824219 117.144531 155.042969 117.253906 155.183594 C 117.34375 155.273438 117.449219 155.328125 117.539062 155.328125 C 117.613281 155.328125 117.683594 155.308594 117.738281 155.257812 Z M 117.738281 155.257812 " fill-opacity="1" fill-rule="nonzero"/><g clip-path="url(#c9a25667e3)"><path fill="#ffa100" d="M 177.429688 185.488281 C 177.429688 185.273438 177.429688 185.039062 177.429688 184.824219 L 176.765625 184.824219 C 176.78125 185.039062 176.78125 185.253906 176.78125 185.46875 C 176.78125 185.648438 176.925781 185.8125 177.105469 185.8125 C 177.285156 185.8125 177.429688 185.667969 177.429688 185.488281 Z M 177.429688 185.488281 " fill-opacity="1" fill-rule="nonzero"/></g><path fill="#ffa100" d="M 142.960938 147.363281 C 142.746094 147.34375 142.515625 147.328125 142.300781 147.308594 C 142.121094 147.289062 141.957031 147.433594 141.941406 147.613281 C 141.941406 147.8125 142.082031 147.972656 142.261719 147.972656 C 142.476562 147.992188 142.695312 148.007812 142.910156 148.027344 C 142.925781 148.027344 142.925781 148.027344 142.945312 148.027344 C 143.105469 148.027344 143.269531 147.902344 143.269531 147.722656 C 143.285156 147.542969 143.140625 147.378906 142.960938 147.363281 Z M 142.960938 147.363281 " fill-opacity="1" fill-rule="nonzero"/><path fill="#ffa100" d="M 120.265625 153.460938 C 120.320312 153.460938 120.390625 153.445312 120.445312 153.410156 C 120.625 153.300781 120.824219 153.175781 121.003906 153.066406 C 121.164062 152.976562 121.21875 152.761719 121.109375 152.621094 C 121.019531 152.457031 120.824219 152.402344 120.660156 152.511719 C 120.464844 152.621094 120.285156 152.746094 120.085938 152.851562 C 119.925781 152.941406 119.890625 153.15625 119.980469 153.300781 C 120.050781 153.410156 120.160156 153.460938 120.265625 153.460938 Z M 120.265625 153.460938 " fill-opacity="1" fill-rule="nonzero"/><path fill="#ffa100" d="M 174.089844 169.269531 C 174 169.070312 173.910156 168.875 173.804688 168.675781 C 173.734375 168.515625 173.535156 168.445312 173.355469 168.515625 C 173.195312 168.585938 173.121094 168.785156 173.195312 168.964844 C 173.300781 169.144531 173.390625 169.339844 173.480469 169.539062 C 173.535156 169.664062 173.660156 169.734375 173.785156 169.734375 C 173.839844 169.734375 173.875 169.71875 173.929688 169.699219 C 174.089844 169.628906 174.164062 169.429688 174.089844 169.269531 Z M 174.089844 169.269531 " fill-opacity="1" fill-rule="nonzero"/><path fill="#ffa100" d="M 176.136719 174.882812 C 176.082031 174.707031 175.902344 174.597656 175.722656 174.652344 C 175.542969 174.707031 175.4375 174.882812 175.492188 175.0625 C 175.542969 175.261719 175.597656 175.476562 175.652344 175.691406 C 175.6875 175.835938 175.832031 175.941406 175.976562 175.941406 C 176.011719 175.941406 176.027344 175.941406 176.066406 175.925781 C 176.246094 175.871094 176.351562 175.691406 176.296875 175.53125 C 176.246094 175.316406 176.191406 175.101562 176.136719 174.882812 Z M 176.136719 174.882812 " fill-opacity="1" fill-rule="nonzero"/><path fill="#ffa100" d="M 175.3125 172.335938 C 175.238281 172.121094 175.167969 171.925781 175.078125 171.710938 C 175.007812 171.53125 174.828125 171.457031 174.648438 171.511719 C 174.46875 171.582031 174.394531 171.761719 174.449219 171.941406 C 174.558594 172.140625 174.628906 172.355469 174.703125 172.550781 C 174.753906 172.695312 174.878906 172.769531 175.007812 172.769531 C 175.042969 172.769531 175.078125 172.769531 175.113281 172.75 C 175.292969 172.695312 175.382812 172.5 175.3125 172.335938 Z M 175.3125 172.335938 " fill-opacity="1" fill-rule="nonzero"/><path fill="#ffa100" d="M 170.539062 164.011719 C 170.609375 164.011719 170.664062 163.996094 170.71875 163.957031 C 170.863281 163.851562 170.898438 163.652344 170.808594 163.492188 C 170.683594 163.3125 170.558594 163.132812 170.429688 162.953125 C 170.324219 162.808594 170.125 162.773438 169.964844 162.882812 C 169.820312 162.988281 169.785156 163.1875 169.894531 163.347656 C 170.019531 163.511719 170.144531 163.6875 170.269531 163.867188 C 170.339844 163.957031 170.429688 164.011719 170.539062 164.011719 Z M 170.539062 164.011719 " fill-opacity="1" fill-rule="nonzero"/><path fill="#ffa100" d="M 172.585938 166.308594 C 172.476562 166.109375 172.367188 165.933594 172.242188 165.734375 C 172.152344 165.574219 171.957031 165.519531 171.792969 165.625 C 171.632812 165.714844 171.578125 165.914062 171.6875 166.074219 C 171.792969 166.253906 171.902344 166.433594 172.011719 166.632812 C 172.0625 166.738281 172.191406 166.792969 172.296875 166.792969 C 172.351562 166.792969 172.40625 166.773438 172.457031 166.757812 C 172.621094 166.667969 172.675781 166.46875 172.585938 166.308594 Z M 172.585938 166.308594 " fill-opacity="1" fill-rule="nonzero"/><path fill="#ffa100" d="M 176.855469 178.113281 C 176.820312 177.933594 176.65625 177.808594 176.476562 177.84375 C 176.296875 177.882812 176.171875 178.058594 176.207031 178.238281 C 176.246094 178.453125 176.28125 178.671875 176.316406 178.886719 C 176.335938 179.046875 176.476562 179.15625 176.640625 179.15625 C 176.65625 179.15625 176.675781 179.15625 176.691406 179.15625 C 176.871094 179.117188 176.996094 178.957031 176.960938 178.777344 C 176.925781 178.5625 176.890625 178.347656 176.855469 178.113281 Z M 176.855469 178.113281 " fill-opacity="1" fill-rule="nonzero"/><path fill="#ffa100" d="M 176.640625 181.46875 C 176.65625 181.683594 176.675781 181.898438 176.691406 182.113281 C 176.710938 182.292969 176.855469 182.421875 177.015625 182.421875 L 177.035156 182.421875 C 177.214844 182.402344 177.355469 182.242188 177.339844 182.0625 C 177.320312 181.847656 177.304688 181.613281 177.285156 181.398438 C 177.265625 181.21875 177.105469 181.074219 176.925781 181.09375 C 176.746094 181.128906 176.621094 181.289062 176.640625 181.46875 Z M 176.640625 181.46875 " fill-opacity="1" fill-rule="nonzero"/><path fill="#ffa100" d="M 158.699219 152.296875 C 158.5 152.1875 158.320312 152.082031 158.125 151.972656 C 157.960938 151.882812 157.765625 151.9375 157.675781 152.097656 C 157.585938 152.261719 157.640625 152.457031 157.800781 152.546875 C 157.996094 152.65625 158.175781 152.761719 158.375 152.871094 C 158.429688 152.90625 158.480469 152.90625 158.535156 152.90625 C 158.644531 152.90625 158.769531 152.851562 158.824219 152.746094 C 158.914062 152.582031 158.859375 152.386719 158.699219 152.296875 Z M 158.699219 152.296875 " fill-opacity="1" fill-rule="nonzero"/><path fill="#ffa100" d="M 168.296875 161.265625 C 168.367188 161.339844 168.457031 161.394531 168.546875 161.394531 C 168.621094 161.394531 168.691406 161.375 168.761719 161.320312 C 168.90625 161.214844 168.925781 160.996094 168.796875 160.855469 C 168.65625 160.675781 168.511719 160.511719 168.367188 160.351562 C 168.242188 160.207031 168.046875 160.191406 167.902344 160.316406 C 167.757812 160.441406 167.738281 160.640625 167.867188 160.78125 C 168.027344 160.925781 168.152344 161.085938 168.296875 161.265625 Z M 168.296875 161.265625 " fill-opacity="1" fill-rule="nonzero"/><path fill="#ffa100" d="M 163.917969 156.691406 C 164.007812 156.691406 164.097656 156.65625 164.167969 156.566406 C 164.296875 156.421875 164.277344 156.226562 164.132812 156.101562 C 163.972656 155.957031 163.792969 155.8125 163.613281 155.667969 C 163.46875 155.5625 163.273438 155.578125 163.148438 155.722656 C 163.019531 155.867188 163.058594 156.0625 163.199219 156.191406 C 163.378906 156.351562 163.542969 156.496094 163.703125 156.621094 C 163.757812 156.675781 163.847656 156.691406 163.917969 156.691406 Z M 163.917969 156.691406 " fill-opacity="1" fill-rule="nonzero"/><path fill="#ffa100" d="M 161.121094 154.628906 C 161.171875 154.664062 161.246094 154.683594 161.316406 154.683594 C 161.425781 154.683594 161.515625 154.628906 161.585938 154.539062 C 161.695312 154.394531 161.65625 154.179688 161.515625 154.074219 C 161.335938 153.945312 161.15625 153.820312 160.957031 153.695312 C 160.816406 153.589844 160.597656 153.625 160.492188 153.785156 C 160.402344 153.945312 160.4375 154.164062 160.582031 154.253906 C 160.761719 154.378906 160.941406 154.503906 161.121094 154.628906 Z M 161.121094 154.628906 " fill-opacity="1" fill-rule="nonzero"/><g clip-path="url(#14506db2be)"><path fill="#ffa100" d="M 163.882812 208.792969 C 157.730469 214.964844 149.242188 218.769531 139.875 218.769531 L 139.875 218.789062 C 130.511719 218.769531 122.023438 214.964844 115.890625 208.8125 C 109.71875 202.675781 105.914062 194.171875 105.914062 184.804688 C 105.914062 175.441406 109.71875 166.953125 115.871094 160.820312 C 122.023438 154.648438 130.511719 150.84375 139.875 150.84375 L 139.875 149.460938 C 130.132812 149.460938 121.289062 153.425781 114.902344 159.832031 L 114.882812 159.8125 C 108.496094 166.238281 104.53125 175.0625 104.53125 184.804688 C 104.53125 194.546875 108.496094 203.394531 114.902344 209.78125 L 114.882812 209.800781 C 121.289062 216.203125 130.117188 220.167969 139.875 220.167969 L 139.875 220.152344 C 149.617188 220.152344 158.464844 216.1875 164.871094 209.78125 Z M 163.882812 208.792969 " fill-opacity="1" fill-rule="nonzero"/></g><path fill="#ffa100" d="M 158.160156 159.222656 C 157.925781 159.527344 157.980469 159.976562 158.304688 160.207031 C 159.46875 161.085938 161.605469 163.097656 161.605469 163.097656 C 162.5 164.011719 163.363281 164.964844 164.132812 165.96875 C 164.277344 166.148438 164.492188 166.238281 164.691406 166.238281 C 164.832031 166.238281 164.996094 166.183594 165.121094 166.09375 C 165.425781 165.859375 165.480469 165.410156 165.246094 165.105469 C 164.421875 164.046875 162.574219 162.109375 162.574219 162.109375 C 161.496094 161.015625 160.347656 160.011719 159.144531 159.078125 C 158.839844 158.84375 158.390625 158.898438 158.160156 159.222656 Z M 158.160156 159.222656 " fill-opacity="1" fill-rule="nonzero"/><path fill="#ffa100" d="M 171.003906 181.613281 C 171.042969 181.613281 171.058594 181.613281 171.09375 181.613281 C 171.472656 181.558594 171.757812 181.21875 171.707031 180.824219 C 171.363281 177.96875 170.628906 175.171875 169.535156 172.515625 C 169.390625 172.15625 168.976562 171.976562 168.621094 172.140625 C 168.261719 172.28125 168.082031 172.695312 168.242188 173.054688 C 169.28125 175.601562 169.984375 178.277344 170.304688 181.003906 C 170.339844 181.363281 170.648438 181.613281 171.003906 181.613281 Z M 171.003906 181.613281 " fill-opacity="1" fill-rule="nonzero"/><path fill="#ffa100" d="M 142.566406 153.445312 C 142.53125 153.820312 142.800781 154.164062 143.195312 154.214844 C 145.921875 154.519531 148.613281 155.183594 151.160156 156.191406 C 151.25 156.226562 151.339844 156.242188 151.414062 156.242188 C 151.699219 156.242188 151.953125 156.082031 152.058594 155.796875 C 152.203125 155.4375 152.023438 155.023438 151.664062 154.878906 C 148.992188 153.820312 146.191406 153.121094 143.339844 152.816406 C 142.960938 152.78125 142.605469 153.050781 142.566406 153.445312 Z M 142.566406 153.445312 " fill-opacity="1" fill-rule="nonzero"/><g clip-path="url(#3eb760b918)"><path fill="#ffa100" d="M 168.835938 184.824219 C 168.835938 176.824219 165.585938 169.59375 160.367188 164.351562 C 155.128906 159.113281 147.878906 155.867188 139.894531 155.867188 C 131.910156 155.867188 124.679688 159.113281 119.441406 164.351562 C 114.203125 169.59375 110.957031 176.824219 110.957031 184.804688 C 110.957031 192.789062 114.203125 200.003906 119.421875 205.242188 C 124.664062 210.480469 131.894531 213.746094 139.875 213.746094 L 139.875 212.273438 C 132.304688 212.273438 125.433594 209.171875 120.464844 204.199219 C 115.476562 199.230469 112.410156 192.378906 112.410156 184.789062 C 112.410156 177.21875 115.496094 170.34375 120.464844 165.375 C 125.433594 160.425781 132.304688 157.339844 139.875 157.339844 C 147.449219 157.339844 154.335938 160.425781 159.308594 165.394531 C 164.277344 170.363281 167.363281 177.234375 167.363281 184.84375 C 167.363281 192.414062 164.277344 199.25 159.308594 204.238281 L 160.347656 205.277344 C 165.585938 200.039062 168.835938 192.808594 168.835938 184.824219 Z M 168.835938 184.824219 " fill-opacity="1" fill-rule="nonzero"/></g><path fill="#ffa100" d="M 161.746094 173.324219 C 161.875 173.324219 162 173.289062 162.125 173.234375 C 162.484375 173.035156 162.625 172.570312 162.410156 172.195312 C 161.390625 170.363281 160.132812 168.675781 158.699219 167.152344 C 158.410156 166.847656 157.925781 166.828125 157.621094 167.117188 C 157.316406 167.402344 157.296875 167.871094 157.585938 168.175781 C 158.929688 169.609375 160.113281 171.207031 161.082031 172.929688 C 161.226562 173.179688 161.476562 173.324219 161.746094 173.324219 Z M 161.746094 173.324219 " fill-opacity="1" fill-rule="nonzero"/><path fill="#ffa100" d="M 164.886719 183.820312 C 164.90625 183.820312 164.921875 183.820312 164.941406 183.820312 C 165.355469 183.785156 165.675781 183.425781 165.640625 183.011719 C 165.496094 180.929688 165.085938 178.867188 164.4375 176.859375 C 164.3125 176.464844 163.882812 176.230469 163.46875 176.375 C 163.074219 176.5 162.84375 176.929688 162.984375 177.34375 C 163.613281 179.226562 164.007812 181.164062 164.132812 183.121094 C 164.167969 183.515625 164.492188 183.820312 164.886719 183.820312 Z M 164.886719 183.820312 " fill-opacity="1" fill-rule="nonzero"/><path fill="#ffa100" d="M 120.949219 168.445312 C 120.625 168.175781 120.140625 168.226562 119.871094 168.550781 C 118.5625 170.183594 117.433594 171.960938 116.554688 173.863281 C 116.355469 174.257812 116.535156 174.707031 116.910156 174.882812 C 117.019531 174.9375 117.128906 174.957031 117.234375 174.957031 C 117.523438 174.957031 117.789062 174.796875 117.917969 174.527344 C 118.757812 172.730469 119.800781 171.0625 121.054688 169.519531 C 121.324219 169.195312 121.273438 168.710938 120.949219 168.445312 Z M 120.949219 168.445312 " fill-opacity="1" fill-rule="nonzero"/><path fill="#ffa100" d="M 142.785156 159.9375 C 142.820312 159.527344 142.515625 159.148438 142.082031 159.113281 C 141.347656 159.058594 140.613281 159.023438 139.875 159.023438 C 138.511719 159.023438 137.167969 159.132812 135.820312 159.347656 C 135.410156 159.417969 135.121094 159.8125 135.195312 160.226562 C 135.246094 160.601562 135.570312 160.871094 135.949219 160.871094 C 135.984375 160.871094 136.039062 160.871094 136.074219 160.855469 C 137.328125 160.65625 138.601562 160.550781 139.875 160.550781 C 140.578125 160.550781 141.277344 160.566406 141.957031 160.640625 C 142.390625 160.675781 142.746094 160.351562 142.785156 159.9375 Z M 142.785156 159.9375 " fill-opacity="1" fill-rule="nonzero"/><path fill="#ffa100" d="M 153.046875 164.40625 C 153.171875 164.496094 153.316406 164.53125 153.457031 164.53125 C 153.710938 164.53125 153.960938 164.40625 154.105469 164.171875 C 154.335938 163.816406 154.230469 163.347656 153.871094 163.113281 C 152.113281 161.984375 150.210938 161.070312 148.238281 160.386719 C 147.84375 160.246094 147.414062 160.460938 147.269531 160.855469 C 147.125 161.265625 147.339844 161.714844 147.734375 161.839844 C 149.601562 162.46875 151.394531 163.347656 153.046875 164.40625 Z M 153.046875 164.40625 " fill-opacity="1" fill-rule="nonzero"/><path fill="#ffa100" d="M 129.8125 161.085938 C 127.875 161.914062 126.042969 162.953125 124.375 164.210938 C 124.035156 164.460938 123.980469 164.945312 124.230469 165.269531 C 124.375 165.464844 124.609375 165.574219 124.84375 165.574219 C 125.003906 165.574219 125.164062 165.519531 125.308594 165.410156 C 126.886719 164.226562 128.589844 163.242188 130.421875 162.46875 C 130.816406 162.308594 130.996094 161.859375 130.835938 161.464844 C 130.671875 161.070312 130.1875 160.925781 129.8125 161.085938 Z M 129.8125 161.085938 " fill-opacity="1" fill-rule="nonzero"/><g clip-path="url(#df94cb1681)"><path fill="#ffa100" d="M 116.085938 180.125 C 116.15625 179.710938 115.890625 179.316406 115.476562 179.226562 C 115.0625 179.136719 114.667969 179.40625 114.578125 179.820312 C 114.257812 181.453125 114.09375 183.121094 114.09375 184.789062 L 114.078125 184.789062 C 114.09375 184.824219 114.09375 184.824219 114.09375 184.824219 C 114.09375 185.238281 114.113281 185.667969 114.128906 186.082031 C 114.148438 186.492188 114.488281 186.796875 114.882812 186.796875 C 114.902344 186.796875 114.902344 186.796875 114.921875 186.796875 C 115.332031 186.78125 115.65625 186.421875 115.636719 185.992188 C 115.621094 185.597656 115.601562 185.199219 115.601562 184.804688 L 115.621094 184.804688 C 115.621094 183.246094 115.78125 181.667969 116.085938 180.125 Z M 116.085938 180.125 " fill-opacity="1" fill-rule="nonzero"/></g><g clip-path="url(#2ebb3749e2)"><path fill="#ffa100" d="M 171.203125 159.5625 C 179.527344 167.90625 184.136719 179.011719 184.136719 190.835938 L 182.902344 190.835938 C 182.902344 179.351562 178.433594 168.550781 170.324219 160.441406 C 162.214844 152.332031 151.359375 147.8125 139.875 147.8125 C 128.394531 147.8125 117.574219 152.277344 109.464844 160.40625 C 101.339844 168.535156 96.851562 179.335938 96.851562 190.835938 C 96.851562 202.316406 101.320312 213.136719 109.449219 221.246094 L 108.570312 222.125 C 100.226562 213.765625 95.613281 202.660156 95.613281 190.835938 C 95.613281 179.011719 100.226562 167.886719 108.585938 159.527344 C 116.949219 151.167969 128.054688 146.574219 139.875 146.574219 C 151.683594 146.574219 162.824219 151.21875 171.183594 159.546875 C 171.183594 159.546875 171.183594 159.546875 171.203125 159.5625 Z M 171.203125 159.5625 " fill-opacity="1" fill-rule="nonzero"/></g><g clip-path="url(#85f090c57e)"><path fill="#ffa100" d="M 110.472656 161.410156 C 110.488281 161.394531 110.488281 161.394531 110.488281 161.394531 C 118.347656 153.554688 128.769531 149.230469 139.875 149.230469 C 150.984375 149.230469 161.425781 153.554688 169.28125 161.410156 C 177.140625 169.269531 181.464844 179.710938 181.464844 190.816406 L 179.3125 190.816406 C 179.3125 180.304688 175.203125 170.398438 167.757812 162.9375 C 160.3125 155.492188 150.410156 151.382812 139.875 151.382812 C 129.34375 151.398438 119.441406 155.492188 112.015625 162.9375 C 104.566406 170.382812 100.441406 180.320312 100.441406 190.835938 C 100.441406 201.367188 104.550781 211.269531 111.996094 218.714844 C 119.441406 226.164062 129.34375 230.269531 139.875 230.269531 C 150.410156 230.269531 160.3125 226.144531 167.757812 218.714844 C 175.203125 211.269531 179.3125 201.367188 179.3125 190.835938 L 181.464844 190.835938 C 181.464844 201.921875 177.160156 212.363281 169.300781 220.222656 C 169.300781 220.222656 169.300781 220.222656 169.28125 220.242188 C 169.28125 220.242188 169.28125 220.242188 169.265625 220.257812 C 161.441406 228.082031 150.964844 232.421875 139.875 232.421875 C 128.769531 232.421875 118.328125 228.101562 110.472656 220.242188 C 102.613281 212.382812 98.289062 201.941406 98.289062 190.835938 C 98.289062 179.746094 102.628906 169.269531 110.472656 161.410156 Z M 110.472656 161.410156 " fill-opacity="1" fill-rule="nonzero"/></g><path fill="#ffa100" d="M 106.9375 207.878906 C 107.0625 207.878906 107.167969 207.953125 107.222656 208.058594 C 107.332031 208.257812 107.421875 208.4375 107.527344 208.632812 C 107.617188 208.792969 107.5625 208.992188 107.402344 209.082031 C 107.242188 209.171875 107.042969 209.117188 106.953125 208.957031 C 106.847656 208.757812 106.738281 208.5625 106.632812 208.363281 C 106.542969 208.203125 106.613281 208.003906 106.773438 207.914062 C 106.828125 207.898438 106.882812 207.878906 106.9375 207.878906 Z M 106.9375 207.878906 " fill-opacity="1" fill-rule="nonzero"/><path fill="#ffa100" d="M 105.519531 204.902344 C 105.644531 204.902344 105.769531 204.972656 105.824219 205.097656 C 105.914062 205.296875 106.003906 205.492188 106.074219 205.707031 C 106.148438 205.871094 106.074219 206.066406 105.914062 206.140625 C 105.753906 206.210938 105.554688 206.140625 105.484375 205.976562 C 105.394531 205.78125 105.304688 205.566406 105.214844 205.367188 C 105.140625 205.1875 105.214844 204.992188 105.394531 204.917969 C 105.429688 204.902344 105.484375 204.902344 105.519531 204.902344 Z M 105.519531 204.902344 " fill-opacity="1" fill-rule="nonzero"/><path fill="#ffa100" d="M 108.585938 210.734375 C 108.695312 210.734375 108.800781 210.785156 108.855469 210.875 C 108.980469 211.054688 109.089844 211.234375 109.214844 211.414062 C 109.324219 211.558594 109.269531 211.773438 109.125 211.878906 C 108.980469 211.988281 108.765625 211.933594 108.660156 211.792969 C 108.53125 211.613281 108.40625 211.414062 108.300781 211.234375 C 108.210938 211.089844 108.265625 210.875 108.40625 210.785156 C 108.460938 210.75 108.53125 210.734375 108.585938 210.734375 Z M 108.585938 210.734375 " fill-opacity="1" fill-rule="nonzero"/><path fill="#ffa100" d="M 102.703125 196.414062 C 102.667969 196.199219 102.628906 195.984375 102.613281 195.75 C 102.59375 195.570312 102.71875 195.410156 102.898438 195.375 C 102.917969 195.375 102.933594 195.375 102.933594 195.375 C 103.097656 195.375 103.242188 195.5 103.257812 195.660156 C 103.292969 195.875 103.3125 196.09375 103.347656 196.308594 C 103.382812 196.488281 103.257812 196.667969 103.078125 196.683594 C 102.898438 196.703125 102.738281 196.59375 102.703125 196.414062 Z M 102.703125 196.414062 " fill-opacity="1" fill-rule="nonzero"/><path fill="#ffa100" d="M 102.378906 193.113281 C 102.359375 192.898438 102.359375 192.664062 102.34375 192.449219 C 102.34375 192.269531 102.46875 192.109375 102.667969 192.109375 L 102.683594 192.109375 C 102.863281 192.109375 103.007812 192.253906 103.007812 192.433594 C 103.023438 192.648438 103.023438 192.863281 103.042969 193.078125 C 103.023438 193.257812 102.898438 193.402344 102.71875 193.417969 C 102.539062 193.4375 102.378906 193.292969 102.378906 193.113281 Z M 102.378906 193.113281 " fill-opacity="1" fill-rule="nonzero"/><path fill="#ffa100" d="M 151.84375 225.765625 C 152.058594 225.695312 152.257812 225.625 152.453125 225.550781 C 152.488281 225.535156 152.527344 225.535156 152.5625 225.535156 C 152.703125 225.535156 152.832031 225.625 152.867188 225.75 C 152.921875 225.929688 152.847656 226.109375 152.667969 226.179688 C 152.453125 226.25 152.257812 226.324219 152.042969 226.394531 C 151.863281 226.449219 151.683594 226.359375 151.628906 226.199219 C 151.574219 226 151.664062 225.820312 151.84375 225.765625 Z M 151.84375 225.765625 " fill-opacity="1" fill-rule="nonzero"/><path fill="#ffa100" d="M 110.777344 213.53125 C 110.902344 213.710938 111.042969 213.871094 111.1875 214.050781 C 111.296875 214.195312 111.277344 214.394531 111.132812 214.519531 C 110.992188 214.625 110.792969 214.609375 110.667969 214.464844 C 110.523438 214.285156 110.398438 214.125 110.253906 213.945312 C 110.128906 213.800781 110.164062 213.601562 110.308594 213.476562 C 110.363281 213.421875 110.433594 213.40625 110.507812 213.40625 C 110.597656 213.40625 110.703125 213.441406 110.777344 213.53125 Z M 110.777344 213.53125 " fill-opacity="1" fill-rule="nonzero"/><path fill="#ffa100" d="M 112.875 216.023438 C 113.019531 216.1875 113.179688 216.347656 113.324219 216.492188 C 113.449219 216.617188 113.449219 216.832031 113.324219 216.957031 C 113.199219 217.082031 112.984375 217.082031 112.855469 216.957031 C 112.695312 216.796875 112.550781 216.636719 112.390625 216.472656 C 112.265625 216.347656 112.265625 216.132812 112.410156 216.007812 C 112.480469 215.953125 112.570312 215.917969 112.640625 215.917969 C 112.730469 215.917969 112.820312 215.953125 112.875 216.023438 Z M 112.875 216.023438 " fill-opacity="1" fill-rule="nonzero"/><path fill="#ffa100" d="M 103.457031 198.621094 C 103.472656 198.621094 103.507812 198.621094 103.527344 198.621094 C 103.671875 198.621094 103.8125 198.730469 103.851562 198.875 C 103.902344 199.089844 103.941406 199.304688 103.992188 199.5 C 104.03125 199.699219 103.921875 199.878906 103.742188 199.914062 C 103.5625 199.949219 103.382812 199.84375 103.347656 199.664062 C 103.292969 199.449219 103.242188 199.230469 103.203125 199.015625 C 103.167969 198.835938 103.277344 198.65625 103.457031 198.621094 Z M 103.457031 198.621094 " fill-opacity="1" fill-rule="nonzero"/><path fill="#ffa100" d="M 149.332031 226.519531 C 149.367188 226.519531 149.386719 226.503906 149.421875 226.503906 C 149.566406 226.503906 149.707031 226.59375 149.746094 226.753906 C 149.796875 226.933594 149.691406 227.113281 149.511719 227.148438 C 149.296875 227.203125 149.082031 227.257812 148.867188 227.308594 C 148.6875 227.347656 148.507812 227.238281 148.472656 227.078125 C 148.417969 226.898438 148.523438 226.71875 148.703125 226.683594 C 148.917969 226.628906 149.132812 226.574219 149.332031 226.519531 Z M 149.332031 226.519531 " fill-opacity="1" fill-rule="nonzero"/><path fill="#ffa100" d="M 104.261719 201.816406 C 104.300781 201.796875 104.335938 201.796875 104.371094 201.796875 C 104.515625 201.796875 104.640625 201.886719 104.695312 202.03125 C 104.765625 202.246094 104.820312 202.445312 104.890625 202.660156 C 104.945312 202.839844 104.855469 203.019531 104.675781 203.070312 C 104.496094 203.125 104.316406 203.035156 104.261719 202.855469 C 104.191406 202.640625 104.121094 202.425781 104.046875 202.226562 C 103.992188 202.046875 104.082031 201.871094 104.261719 201.816406 Z M 104.261719 201.816406 " fill-opacity="1" fill-rule="nonzero"/><path fill="#ffa100" d="M 155.46875 224.296875 C 155.523438 224.277344 155.558594 224.261719 155.613281 224.261719 C 155.738281 224.261719 155.863281 224.332031 155.917969 224.457031 C 155.988281 224.621094 155.917969 224.816406 155.753906 224.886719 C 155.558594 224.976562 155.359375 225.066406 155.144531 225.15625 C 154.984375 225.230469 154.785156 225.15625 154.714844 224.996094 C 154.644531 224.835938 154.714844 224.636719 154.875 224.566406 C 155.074219 224.476562 155.269531 224.386719 155.46875 224.296875 Z M 155.46875 224.296875 " fill-opacity="1" fill-rule="nonzero"/><g clip-path="url(#58cc7cba1b)"><path fill="#ffa100" d="M 102.34375 189.113281 C 102.34375 188.953125 102.488281 188.808594 102.683594 188.808594 C 102.863281 188.808594 103.007812 188.96875 103.007812 189.148438 C 102.988281 189.363281 102.988281 189.578125 102.988281 189.792969 C 102.988281 189.972656 102.828125 190.117188 102.648438 190.117188 C 102.46875 190.117188 102.324219 189.957031 102.324219 189.777344 C 102.324219 189.5625 102.34375 189.328125 102.34375 189.113281 Z M 102.34375 189.113281 " fill-opacity="1" fill-rule="nonzero"/></g><path fill="#ffa100" d="M 166 216.90625 C 166.035156 216.867188 166.089844 216.816406 166.105469 216.796875 C 166.179688 216.726562 166.25 216.707031 166.339844 216.707031 C 166.429688 216.707031 166.503906 216.742188 166.574219 216.796875 C 166.699219 216.921875 166.699219 217.136719 166.574219 217.261719 C 166.539062 217.300781 166.484375 217.351562 166.449219 217.390625 C 166.324219 217.496094 166.214844 217.621094 166.105469 217.730469 C 165.980469 217.855469 165.765625 217.855469 165.640625 217.730469 C 165.515625 217.605469 165.515625 217.390625 165.640625 217.261719 C 165.75 217.15625 165.875 217.011719 166 216.90625 Z M 166 216.90625 " fill-opacity="1" fill-rule="nonzero"/><path fill="#ffa100" d="M 146.15625 227.203125 C 146.175781 227.203125 146.191406 227.203125 146.210938 227.203125 C 146.371094 227.203125 146.515625 227.308594 146.53125 227.472656 C 146.570312 227.652344 146.445312 227.832031 146.265625 227.847656 C 146.046875 227.882812 145.832031 227.921875 145.601562 227.957031 C 145.421875 227.992188 145.257812 227.867188 145.222656 227.6875 C 145.1875 227.507812 145.332031 227.347656 145.511719 227.308594 C 145.726562 227.273438 145.941406 227.238281 146.15625 227.203125 Z M 146.15625 227.203125 " fill-opacity="1" fill-rule="nonzero"/><path fill="#ffa100" d="M 115.226562 218.320312 C 115.386719 218.464844 115.546875 218.609375 115.710938 218.753906 C 115.851562 218.878906 115.871094 219.074219 115.746094 219.21875 C 115.621094 219.363281 115.421875 219.378906 115.277344 219.253906 C 115.117188 219.109375 114.9375 218.96875 114.777344 218.804688 C 114.652344 218.679688 114.632812 218.464844 114.757812 218.339844 C 114.832031 218.269531 114.921875 218.230469 115.011719 218.230469 C 115.082031 218.230469 115.171875 218.269531 115.226562 218.320312 Z M 115.226562 218.320312 " fill-opacity="1" fill-rule="nonzero"/><g clip-path="url(#ddd1e8082a)"><path fill="#ffa100" d="M 177.445312 190.90625 C 177.445312 191.085938 177.304688 191.230469 177.125 191.230469 C 176.945312 191.230469 176.800781 191.085938 176.800781 190.90625 L 176.800781 190.835938 L 177.464844 190.835938 Z M 177.445312 190.90625 " fill-opacity="1" fill-rule="nonzero"/></g><path fill="#ffa100" d="M 117.738281 220.386719 C 117.917969 220.511719 118.078125 220.636719 118.257812 220.78125 C 118.402344 220.886719 118.4375 221.085938 118.328125 221.246094 C 118.222656 221.40625 118.023438 221.425781 117.863281 221.316406 C 117.683594 221.191406 117.503906 221.050781 117.324219 220.921875 C 117.179688 220.816406 117.144531 220.601562 117.253906 220.457031 C 117.34375 220.367188 117.449219 220.3125 117.539062 220.3125 C 117.613281 220.3125 117.683594 220.332031 117.738281 220.386719 Z M 117.738281 220.386719 " fill-opacity="1" fill-rule="nonzero"/><g clip-path="url(#985ea5fe1d)"><path fill="#ffa100" d="M 177.429688 190.152344 C 177.429688 190.367188 177.429688 190.601562 177.429688 190.816406 L 176.765625 190.816406 C 176.78125 190.601562 176.78125 190.386719 176.78125 190.171875 C 176.78125 189.992188 176.925781 189.832031 177.105469 189.832031 C 177.285156 189.832031 177.429688 189.972656 177.429688 190.152344 Z M 177.429688 190.152344 " fill-opacity="1" fill-rule="nonzero"/></g><path fill="#ffa100" d="M 142.960938 228.28125 C 142.746094 228.296875 142.515625 228.316406 142.300781 228.332031 C 142.121094 228.351562 141.957031 228.207031 141.941406 228.027344 C 141.941406 227.832031 142.082031 227.667969 142.261719 227.667969 C 142.476562 227.652344 142.695312 227.632812 142.910156 227.617188 C 142.925781 227.617188 142.925781 227.617188 142.945312 227.617188 C 143.105469 227.617188 143.269531 227.742188 143.269531 227.921875 C 143.285156 228.101562 143.140625 228.261719 142.960938 228.28125 Z M 142.960938 228.28125 " fill-opacity="1" fill-rule="nonzero"/><path fill="#ffa100" d="M 120.265625 222.179688 C 120.320312 222.179688 120.390625 222.195312 120.445312 222.234375 C 120.625 222.339844 120.824219 222.464844 121.003906 222.574219 C 121.164062 222.664062 121.21875 222.878906 121.109375 223.023438 C 121.019531 223.183594 120.824219 223.238281 120.660156 223.128906 C 120.464844 223.023438 120.285156 222.898438 120.085938 222.789062 C 119.925781 222.699219 119.890625 222.484375 119.980469 222.339844 C 120.050781 222.234375 120.160156 222.179688 120.265625 222.179688 Z M 120.265625 222.179688 " fill-opacity="1" fill-rule="nonzero"/><path fill="#ffa100" d="M 174.089844 206.371094 C 174 206.570312 173.910156 206.765625 173.804688 206.964844 C 173.734375 207.125 173.535156 207.199219 173.355469 207.125 C 173.195312 207.054688 173.121094 206.855469 173.195312 206.675781 C 173.300781 206.5 173.390625 206.300781 173.480469 206.105469 C 173.535156 205.976562 173.660156 205.90625 173.785156 205.90625 C 173.839844 205.90625 173.875 205.925781 173.929688 205.941406 C 174.089844 206.015625 174.164062 206.210938 174.089844 206.371094 Z M 174.089844 206.371094 " fill-opacity="1" fill-rule="nonzero"/><path fill="#ffa100" d="M 176.136719 200.757812 C 176.082031 200.9375 175.902344 201.042969 175.722656 200.992188 C 175.542969 200.9375 175.4375 200.757812 175.492188 200.578125 C 175.542969 200.378906 175.597656 200.164062 175.652344 199.949219 C 175.6875 199.804688 175.832031 199.699219 175.976562 199.699219 C 176.011719 199.699219 176.027344 199.699219 176.066406 199.714844 C 176.246094 199.769531 176.351562 199.949219 176.296875 200.109375 C 176.246094 200.328125 176.191406 200.542969 176.136719 200.757812 Z M 176.136719 200.757812 " fill-opacity="1" fill-rule="nonzero"/><path fill="#ffa100" d="M 175.3125 203.304688 C 175.238281 203.519531 175.167969 203.71875 175.078125 203.933594 C 175.007812 204.113281 174.828125 204.183594 174.648438 204.128906 C 174.46875 204.058594 174.394531 203.878906 174.449219 203.699219 C 174.558594 203.503906 174.628906 203.285156 174.703125 203.089844 C 174.753906 202.945312 174.878906 202.875 175.007812 202.875 C 175.042969 202.875 175.078125 202.875 175.113281 202.890625 C 175.292969 202.945312 175.382812 203.144531 175.3125 203.304688 Z M 175.3125 203.304688 " fill-opacity="1" fill-rule="nonzero"/><path fill="#ffa100" d="M 170.539062 211.628906 C 170.609375 211.628906 170.664062 211.648438 170.71875 211.683594 C 170.863281 211.792969 170.898438 211.988281 170.808594 212.148438 C 170.683594 212.328125 170.558594 212.507812 170.429688 212.6875 C 170.324219 212.832031 170.125 212.867188 169.964844 212.761719 C 169.820312 212.652344 169.785156 212.453125 169.894531 212.292969 C 170.019531 212.132812 170.144531 211.953125 170.269531 211.773438 C 170.339844 211.683594 170.429688 211.628906 170.539062 211.628906 Z M 170.539062 211.628906 " fill-opacity="1" fill-rule="nonzero"/><path fill="#ffa100" d="M 172.585938 209.332031 C 172.476562 209.53125 172.367188 209.710938 172.242188 209.90625 C 172.152344 210.070312 171.957031 210.121094 171.792969 210.015625 C 171.632812 209.925781 171.578125 209.726562 171.6875 209.566406 C 171.792969 209.386719 171.902344 209.207031 172.011719 209.011719 C 172.0625 208.902344 172.191406 208.847656 172.296875 208.847656 C 172.351562 208.847656 172.40625 208.867188 172.457031 208.882812 C 172.621094 208.972656 172.675781 209.171875 172.585938 209.332031 Z M 172.585938 209.332031 " fill-opacity="1" fill-rule="nonzero"/><path fill="#ffa100" d="M 176.855469 197.527344 C 176.820312 197.707031 176.65625 197.832031 176.476562 197.796875 C 176.296875 197.761719 176.171875 197.582031 176.207031 197.402344 C 176.246094 197.1875 176.28125 196.972656 176.316406 196.757812 C 176.335938 196.59375 176.476562 196.488281 176.640625 196.488281 C 176.65625 196.488281 176.675781 196.488281 176.691406 196.488281 C 176.871094 196.523438 176.996094 196.683594 176.960938 196.863281 C 176.925781 197.078125 176.890625 197.292969 176.855469 197.527344 Z M 176.855469 197.527344 " fill-opacity="1" fill-rule="nonzero"/><path fill="#ffa100" d="M 176.640625 194.171875 C 176.65625 193.957031 176.675781 193.742188 176.691406 193.527344 C 176.710938 193.347656 176.855469 193.222656 177.015625 193.222656 L 177.035156 193.222656 C 177.214844 193.238281 177.355469 193.402344 177.339844 193.582031 C 177.320312 193.796875 177.304688 194.027344 177.285156 194.246094 C 177.265625 194.421875 177.105469 194.566406 176.925781 194.550781 C 176.746094 194.511719 176.621094 194.351562 176.640625 194.171875 Z M 176.640625 194.171875 " fill-opacity="1" fill-rule="nonzero"/><path fill="#ffa100" d="M 158.699219 223.34375 C 158.5 223.453125 158.320312 223.5625 158.125 223.667969 C 157.960938 223.757812 157.765625 223.703125 157.675781 223.542969 C 157.585938 223.382812 157.640625 223.183594 157.800781 223.09375 C 157.996094 222.988281 158.175781 222.878906 158.375 222.769531 C 158.429688 222.734375 158.480469 222.734375 158.535156 222.734375 C 158.644531 222.734375 158.769531 222.789062 158.824219 222.898438 C 158.914062 223.058594 158.859375 223.253906 158.699219 223.34375 Z M 158.699219 223.34375 " fill-opacity="1" fill-rule="nonzero"/><path fill="#ffa100" d="M 168.296875 214.375 C 168.367188 214.304688 168.457031 214.25 168.546875 214.25 C 168.621094 214.25 168.691406 214.265625 168.761719 214.320312 C 168.90625 214.429688 168.925781 214.644531 168.796875 214.789062 C 168.65625 214.964844 168.511719 215.128906 168.367188 215.289062 C 168.242188 215.433594 168.046875 215.449219 167.902344 215.324219 C 167.757812 215.199219 167.738281 215.003906 167.867188 214.859375 C 168.027344 214.714844 168.152344 214.554688 168.296875 214.375 Z M 168.296875 214.375 " fill-opacity="1" fill-rule="nonzero"/><path fill="#ffa100" d="M 163.917969 218.949219 C 164.007812 218.949219 164.097656 218.984375 164.167969 219.074219 C 164.296875 219.21875 164.277344 219.417969 164.132812 219.542969 C 163.972656 219.683594 163.792969 219.828125 163.613281 219.972656 C 163.46875 220.078125 163.273438 220.0625 163.148438 219.917969 C 163.019531 219.773438 163.058594 219.578125 163.199219 219.453125 C 163.378906 219.289062 163.542969 219.148438 163.703125 219.023438 C 163.757812 218.96875 163.847656 218.949219 163.917969 218.949219 Z M 163.917969 218.949219 " fill-opacity="1" fill-rule="nonzero"/><path fill="#ffa100" d="M 161.121094 221.011719 C 161.171875 220.976562 161.246094 220.960938 161.316406 220.960938 C 161.425781 220.960938 161.515625 221.011719 161.585938 221.101562 C 161.695312 221.246094 161.65625 221.460938 161.515625 221.570312 C 161.335938 221.695312 161.15625 221.820312 160.957031 221.945312 C 160.816406 222.054688 160.597656 222.019531 160.492188 221.855469 C 160.402344 221.695312 160.4375 221.480469 160.582031 221.390625 C 160.761719 221.265625 160.941406 221.136719 161.121094 221.011719 Z M 161.121094 221.011719 " fill-opacity="1" fill-rule="nonzero"/><g clip-path="url(#bd58715de6)"><path fill="#ffa100" d="M 163.882812 166.847656 C 157.730469 160.675781 149.242188 156.871094 139.875 156.871094 L 139.875 156.855469 C 130.511719 156.871094 122.023438 160.675781 115.890625 166.828125 C 109.71875 172.964844 105.914062 181.46875 105.914062 190.835938 C 105.914062 200.199219 109.71875 208.6875 115.871094 214.824219 C 122.023438 220.996094 130.511719 224.796875 139.875 224.796875 L 139.875 226.179688 C 130.132812 226.179688 121.289062 222.214844 114.902344 215.808594 L 114.882812 215.828125 C 108.496094 209.40625 104.53125 200.578125 104.53125 190.835938 C 104.53125 181.09375 108.496094 172.246094 114.902344 165.859375 L 114.882812 165.84375 C 121.289062 159.4375 130.117188 155.472656 139.875 155.472656 L 139.875 155.492188 C 149.617188 155.492188 158.464844 159.457031 164.871094 165.859375 Z M 163.882812 166.847656 " fill-opacity="1" fill-rule="nonzero"/></g><path fill="#ffa100" d="M 158.160156 216.421875 C 157.925781 216.113281 157.980469 215.667969 158.304688 215.433594 C 159.46875 214.554688 161.605469 212.542969 161.605469 212.542969 C 162.5 211.628906 163.363281 210.679688 164.132812 209.675781 C 164.277344 209.496094 164.492188 209.40625 164.691406 209.40625 C 164.832031 209.40625 164.996094 209.457031 165.121094 209.546875 C 165.425781 209.78125 165.480469 210.230469 165.246094 210.535156 C 164.421875 211.59375 162.574219 213.53125 162.574219 213.53125 C 161.496094 214.625 160.347656 215.628906 159.144531 216.5625 C 158.839844 216.796875 158.390625 216.742188 158.160156 216.421875 Z M 158.160156 216.421875 " fill-opacity="1" fill-rule="nonzero"/><path fill="#ffa100" d="M 171.003906 194.027344 C 171.042969 194.027344 171.058594 194.027344 171.09375 194.027344 C 171.472656 194.082031 171.757812 194.421875 171.707031 194.820312 C 171.363281 197.671875 170.628906 200.46875 169.535156 203.125 C 169.390625 203.484375 168.976562 203.664062 168.621094 203.503906 C 168.261719 203.359375 168.082031 202.945312 168.242188 202.585938 C 169.28125 200.039062 169.984375 197.367188 170.304688 194.640625 C 170.339844 194.28125 170.648438 194.027344 171.003906 194.027344 Z M 171.003906 194.027344 " fill-opacity="1" fill-rule="nonzero"/><path fill="#ffa100" d="M 142.566406 222.195312 C 142.53125 221.820312 142.800781 221.480469 143.195312 221.425781 C 145.921875 221.121094 148.613281 220.457031 151.160156 219.453125 C 151.25 219.417969 151.339844 219.398438 151.414062 219.398438 C 151.699219 219.398438 151.953125 219.558594 152.058594 219.847656 C 152.203125 220.207031 152.023438 220.617188 151.664062 220.761719 C 148.992188 221.820312 146.191406 222.519531 143.339844 222.824219 C 142.960938 222.859375 142.605469 222.59375 142.566406 222.195312 Z M 142.566406 222.195312 " fill-opacity="1" fill-rule="nonzero"/><g clip-path="url(#033aab8bdf)"><path fill="#ffa100" d="M 168.835938 190.816406 C 168.835938 198.820312 165.585938 206.050781 160.367188 211.289062 C 155.128906 216.527344 147.878906 219.773438 139.894531 219.773438 C 131.910156 219.773438 124.679688 216.527344 119.441406 211.289062 C 114.203125 206.050781 110.957031 198.820312 110.957031 190.835938 C 110.957031 182.851562 114.203125 175.640625 119.421875 170.398438 C 124.664062 165.160156 131.894531 161.894531 139.875 161.894531 L 139.875 163.367188 C 132.304688 163.367188 125.433594 166.472656 120.464844 171.441406 C 115.476562 176.410156 112.410156 183.265625 112.410156 190.851562 C 112.410156 198.425781 115.496094 205.296875 120.464844 210.265625 C 125.433594 215.21875 132.304688 218.304688 139.875 218.304688 C 147.449219 218.304688 154.335938 215.21875 159.308594 210.25 C 164.277344 205.277344 167.363281 198.40625 167.363281 190.800781 C 167.363281 183.226562 164.277344 176.390625 159.308594 171.40625 L 160.347656 170.363281 C 165.585938 175.601562 168.835938 182.832031 168.835938 190.816406 Z M 168.835938 190.816406 " fill-opacity="1" fill-rule="nonzero"/></g><path fill="#ffa100" d="M 161.746094 202.316406 C 161.875 202.316406 162 202.355469 162.125 202.40625 C 162.484375 202.605469 162.625 203.070312 162.410156 203.449219 C 161.390625 205.277344 160.132812 206.964844 158.699219 208.488281 C 158.410156 208.792969 157.925781 208.8125 157.621094 208.527344 C 157.316406 208.238281 157.296875 207.773438 157.585938 207.46875 C 158.929688 206.03125 160.113281 204.433594 161.082031 202.710938 C 161.226562 202.460938 161.476562 202.316406 161.746094 202.316406 Z M 161.746094 202.316406 " fill-opacity="1" fill-rule="nonzero"/><path fill="#ffa100" d="M 164.886719 191.820312 C 164.90625 191.820312 164.921875 191.820312 164.941406 191.820312 C 165.355469 191.859375 165.675781 192.21875 165.640625 192.628906 C 165.496094 194.710938 165.085938 196.773438 164.4375 198.785156 C 164.3125 199.179688 163.882812 199.410156 163.46875 199.269531 C 163.074219 199.140625 162.84375 198.710938 162.984375 198.300781 C 163.613281 196.414062 164.007812 194.476562 164.132812 192.523438 C 164.167969 192.128906 164.492188 191.820312 164.886719 191.820312 Z M 164.886719 191.820312 " fill-opacity="1" fill-rule="nonzero"/><path fill="#ffa100" d="M 120.949219 207.199219 C 120.625 207.46875 120.140625 207.414062 119.871094 207.089844 C 118.5625 205.457031 117.433594 203.679688 116.554688 201.78125 C 116.355469 201.386719 116.535156 200.9375 116.910156 200.757812 C 117.019531 200.703125 117.128906 200.683594 117.234375 200.683594 C 117.523438 200.683594 117.789062 200.847656 117.917969 201.117188 C 118.757812 202.910156 119.800781 204.578125 121.054688 206.121094 C 121.324219 206.445312 121.273438 206.929688 120.949219 207.199219 Z M 120.949219 207.199219 " fill-opacity="1" fill-rule="nonzero"/><path fill="#ffa100" d="M 142.785156 215.703125 C 142.820312 216.113281 142.515625 216.492188 142.082031 216.527344 C 141.347656 216.582031 140.613281 216.617188 139.875 216.617188 C 138.511719 216.617188 137.167969 216.507812 135.820312 216.292969 C 135.410156 216.222656 135.121094 215.828125 135.195312 215.414062 C 135.246094 215.039062 135.570312 214.769531 135.949219 214.769531 C 135.984375 214.769531 136.039062 214.769531 136.074219 214.789062 C 137.328125 214.984375 138.601562 215.09375 139.875 215.09375 C 140.578125 215.09375 141.277344 215.074219 141.957031 215.003906 C 142.390625 214.964844 142.746094 215.289062 142.785156 215.703125 Z M 142.785156 215.703125 " fill-opacity="1" fill-rule="nonzero"/><path fill="#ffa100" d="M 153.046875 211.234375 C 153.171875 211.144531 153.316406 211.109375 153.457031 211.109375 C 153.710938 211.109375 153.960938 211.234375 154.105469 211.46875 C 154.335938 211.828125 154.230469 212.292969 153.871094 212.527344 C 152.113281 213.65625 150.210938 214.570312 148.238281 215.253906 C 147.84375 215.398438 147.414062 215.183594 147.269531 214.789062 C 147.125 214.375 147.339844 213.925781 147.734375 213.800781 C 149.601562 213.171875 151.394531 212.292969 153.046875 211.234375 Z M 153.046875 211.234375 " fill-opacity="1" fill-rule="nonzero"/><path fill="#ffa100" d="M 129.8125 214.554688 C 127.875 213.730469 126.042969 212.6875 124.375 211.433594 C 124.035156 211.179688 123.980469 210.695312 124.230469 210.375 C 124.375 210.175781 124.609375 210.070312 124.84375 210.070312 C 125.003906 210.070312 125.164062 210.121094 125.308594 210.230469 C 126.886719 211.414062 128.589844 212.402344 130.421875 213.171875 C 130.816406 213.335938 130.996094 213.78125 130.835938 214.175781 C 130.671875 214.570312 130.1875 214.714844 129.8125 214.554688 Z M 129.8125 214.554688 " fill-opacity="1" fill-rule="nonzero"/><g clip-path="url(#84756d57bc)"><path fill="#ffa100" d="M 116.085938 195.519531 C 116.15625 195.929688 115.890625 196.324219 115.476562 196.414062 C 115.0625 196.503906 114.667969 196.234375 114.578125 195.824219 C 114.257812 194.191406 114.09375 192.523438 114.09375 190.851562 L 114.078125 190.851562 C 114.09375 190.816406 114.09375 190.816406 114.09375 190.816406 C 114.09375 190.40625 114.113281 189.972656 114.128906 189.5625 C 114.148438 189.148438 114.488281 188.84375 114.882812 188.84375 C 114.902344 188.84375 114.902344 188.84375 114.921875 188.84375 C 115.332031 188.863281 115.65625 189.21875 115.636719 189.652344 C 115.621094 190.046875 115.601562 190.441406 115.601562 190.835938 L 115.621094 190.835938 C 115.621094 192.394531 115.78125 193.976562 116.085938 195.519531 Z M 116.085938 195.519531 " fill-opacity="1" fill-rule="nonzero"/></g><g clip-path="url(#8271a43e1c)"><path fill="#ffa100" d="M 126.3125 281.078125 L 150.257812 281.078125 C 152.992188 281.078125 155.210938 278.867188 155.222656 276.132812 C 155.222656 276.117188 155.222656 276.105469 155.222656 276.089844 L 156.355469 259.886719 C 156.382812 259.535156 156.625 259.242188 156.964844 259.15625 C 162.128906 257.804688 167.066406 255.914062 171.71875 253.535156 C 171.722656 253.535156 171.726562 253.53125 171.726562 253.53125 C 172.171875 253.300781 172.300781 252.722656 172 252.328125 L 160.660156 237.433594 C 160.433594 237.136719 160.03125 237.027344 159.6875 237.175781 C 157.753906 238.019531 155.757812 238.75 153.710938 239.367188 C 151.09375 240.148438 148.390625 240.738281 145.621094 241.117188 C 143.960938 241.34375 142.277344 241.496094 140.574219 241.566406 C 139.816406 241.597656 139.050781 241.613281 138.285156 241.613281 C 136.8125 241.613281 135.351562 241.554688 133.910156 241.4375 C 118.183594 240.171875 104.371094 232.128906 95.390625 220.234375 C 88.601562 211.242188 84.578125 200.046875 84.578125 187.910156 C 84.578125 158.246094 108.625 134.203125 138.285156 134.203125 C 145.894531 134.203125 153.132812 135.785156 159.691406 138.640625 C 160.03125 138.789062 160.433594 138.683594 160.660156 138.386719 L 161.722656 136.988281 L 171.992188 123.5 C 172.296875 123.097656 172.167969 122.515625 171.71875 122.285156 C 171.667969 122.257812 171.613281 122.226562 171.558594 122.199219 C 171.484375 122.160156 171.414062 122.125 171.339844 122.089844 C 169.003906 120.914062 166.597656 119.859375 164.128906 118.933594 C 161.796875 118.0625 159.40625 117.300781 156.964844 116.664062 C 156.625 116.574219 156.382812 116.28125 156.355469 115.929688 L 155.222656 99.730469 C 155.222656 99.714844 155.222656 99.699219 155.222656 99.683594 C 155.210938 96.953125 152.992188 94.742188 150.257812 94.742188 L 126.3125 94.742188 C 123.578125 94.742188 121.359375 96.953125 121.347656 99.683594 C 121.347656 99.699219 121.34375 99.714844 121.34375 99.730469 L 120.210938 115.929688 C 120.1875 116.28125 119.945312 116.574219 119.601562 116.664062 C 113.042969 118.378906 106.835938 120.976562 101.121094 124.324219 C 100.816406 124.503906 100.4375 124.46875 100.171875 124.238281 L 87.910156 113.578125 C 87.898438 113.566406 87.886719 113.558594 87.878906 113.546875 C 85.9375 111.625 82.804688 111.628906 80.871094 113.5625 L 63.9375 130.496094 C 62.003906 132.429688 62 135.5625 63.925781 137.503906 C 63.933594 137.511719 63.945312 137.523438 63.953125 137.535156 L 74.613281 149.796875 C 74.84375 150.058594 74.875 150.441406 74.699219 150.746094 C 71.351562 156.460938 68.753906 162.664062 67.039062 169.226562 C 66.949219 169.566406 66.65625 169.8125 66.304688 169.835938 L 50.105469 170.96875 C 50.089844 170.972656 50.074219 170.972656 50.0625 170.972656 C 47.328125 170.984375 45.117188 173.199219 45.117188 175.9375 L 45.117188 199.882812 C 45.117188 202.617188 47.328125 204.835938 50.0625 204.847656 C 50.074219 204.847656 50.089844 204.847656 50.105469 204.851562 L 66.304688 205.980469 C 66.65625 206.003906 66.949219 206.25 67.039062 206.589844 C 68.753906 213.152344 71.351562 219.359375 74.699219 225.074219 C 74.875 225.375 74.84375 225.757812 74.613281 226.023438 L 72.816406 228.089844 L 63.953125 238.285156 C 63.945312 238.296875 63.933594 238.304688 63.925781 238.316406 C 62 240.253906 62.003906 243.390625 63.9375 245.324219 L 70.550781 251.9375 L 80.871094 262.253906 C 82.804688 264.1875 85.9375 264.195312 87.878906 262.269531 C 87.886719 262.257812 87.898438 262.25 87.910156 262.242188 L 100.171875 251.578125 C 100.4375 251.351562 100.816406 251.316406 101.121094 251.492188 C 106.054688 254.382812 111.359375 256.71875 116.945312 258.40625 C 117.824219 258.671875 118.710938 258.921875 119.601562 259.15625 C 119.945312 259.242188 120.1875 259.539062 120.210938 259.886719 L 120.382812 262.289062 L 120.519531 264.292969 L 120.941406 270.296875 L 121.34375 276.089844 C 121.34375 276.105469 121.347656 276.117188 121.347656 276.132812 C 121.359375 278.867188 123.578125 281.078125 126.3125 281.078125 " fill-opacity="1" fill-rule="nonzero"/></g><g clip-path="url(#7c82bbb531)"><path fill="#0d0745" d="M 146.4375 139.613281 L 184.144531 139.613281 L 184.144531 235.363281 L 146.4375 235.363281 Z M 146.4375 139.613281 " fill-opacity="1" fill-rule="nonzero"/></g><g clip-path="url(#b40c704af1)"><g clip-path="url(#3dc702b5b6)"><path fill="#0d0745" d="M 126.410156 197.796875 L 134.757812 206.144531 L 119.695312 221.203125 L 111.351562 212.859375 Z M 126.410156 197.796875 " fill-opacity="1" fill-rule="nonzero"/></g></g><g clip-path="url(#1f5aea0724)"><path fill="#0d0745" d="M 156.027344 224.722656 L 156.027344 228.542969 L 134.75 228.542969 L 134.75 224.722656 Z M 156.027344 224.722656 " fill-opacity="1" fill-rule="nonzero"/></g><g fill="#ffffff" fill-opacity="1"><g transform="translate(113.532306, 225.709808)"><g><path d="M 27.234375 1.125 C 21.109375 1.125 15.972656 -0.03125 11.828125 -2.34375 C 7.679688 -4.664062 4.257812 -7.429688 1.5625 -10.640625 L 12.4375 -22.75 C 14.675781 -20.28125 16.9375 -18.351562 19.21875 -16.96875 C 21.5 -15.59375 24.019531 -14.90625 26.78125 -14.90625 C 30.070312 -14.90625 32.648438 -15.929688 34.515625 -17.984375 C 36.378906 -20.035156 37.3125 -23.34375 37.3125 -27.90625 L 37.3125 -78.4375 L 55.015625 -78.4375 L 55.015625 -27.125 C 55.015625 -22.414062 54.378906 -18.34375 53.109375 -14.90625 C 51.847656 -11.46875 50.019531 -8.550781 47.625 -6.15625 C 45.238281 -3.769531 42.304688 -1.957031 38.828125 -0.71875 C 35.359375 0.507812 31.492188 1.125 27.234375 1.125 Z M 27.234375 1.125 "/></g></g></g><g fill="#ffffff" fill-opacity="1"><g transform="translate(164.967978, 225.709808)"><g><path d="M 9.40625 -78.4375 L 45.265625 -78.4375 C 55.203125 -78.4375 62.828125 -75.785156 68.140625 -70.484375 C 72.617188 -66.003906 74.859375 -60.03125 74.859375 -52.5625 L 74.859375 -52.328125 C 74.859375 -45.984375 73.304688 -40.8125 70.203125 -36.8125 C 67.109375 -32.8125 63.054688 -29.878906 58.046875 -28.015625 L 77.21875 0 L 57.046875 0 L 40.234375 -25.109375 L 26.671875 -25.109375 L 26.671875 0 L 9.40625 0 Z M 44.15625 -40.34375 C 48.414062 -40.34375 51.679688 -41.347656 53.953125 -43.359375 C 56.234375 -45.378906 57.375 -48.070312 57.375 -51.4375 L 57.375 -51.65625 C 57.375 -55.394531 56.175781 -58.195312 53.78125 -60.0625 C 51.394531 -61.925781 48.070312 -62.859375 43.8125 -62.859375 L 26.671875 -62.859375 L 26.671875 -40.34375 Z M 44.15625 -40.34375 "/></g></g></g><g fill="#ffffff" fill-opacity="1"><g transform="translate(234.221574, 225.709808)"><g><path d="M 37.3125 1.125 C 31.34375 1.125 25.476562 0.0976562 19.71875 -1.953125 C 13.96875 -4.015625 8.738281 -7.175781 4.03125 -11.4375 L 14.234375 -23.640625 C 17.816406 -20.734375 21.492188 -18.421875 25.265625 -16.703125 C 29.035156 -14.984375 33.164062 -14.125 37.65625 -14.125 C 41.238281 -14.125 44.019531 -14.773438 46 -16.078125 C 47.976562 -17.390625 48.96875 -19.203125 48.96875 -21.515625 L 48.96875 -21.734375 C 48.96875 -22.859375 48.757812 -23.847656 48.34375 -24.703125 C 47.9375 -25.566406 47.15625 -26.367188 46 -27.109375 C 44.84375 -27.859375 43.234375 -28.609375 41.171875 -29.359375 C 39.117188 -30.109375 36.453125 -30.894531 33.171875 -31.71875 C 29.210938 -32.6875 25.625 -33.765625 22.40625 -34.953125 C 19.195312 -36.148438 16.472656 -37.625 14.234375 -39.375 C 11.992188 -41.132812 10.253906 -43.320312 9.015625 -45.9375 C 7.785156 -48.5625 7.171875 -51.8125 7.171875 -55.6875 L 7.171875 -55.921875 C 7.171875 -59.503906 7.84375 -62.734375 9.1875 -65.609375 C 10.53125 -68.484375 12.414062 -70.96875 14.84375 -73.0625 C 17.269531 -75.15625 20.164062 -76.757812 23.53125 -77.875 C 26.894531 -79 30.59375 -79.5625 34.625 -79.5625 C 40.375 -79.5625 45.660156 -78.703125 50.484375 -76.984375 C 55.304688 -75.265625 59.734375 -72.800781 63.765625 -69.59375 L 54.796875 -56.59375 C 51.285156 -58.976562 47.847656 -60.863281 44.484375 -62.25 C 41.128906 -63.632812 37.769531 -64.328125 34.40625 -64.328125 C 31.039062 -64.328125 28.515625 -63.671875 26.828125 -62.359375 C 25.148438 -61.054688 24.3125 -59.429688 24.3125 -57.484375 L 24.3125 -57.265625 C 24.3125 -55.992188 24.554688 -54.890625 25.046875 -53.953125 C 25.535156 -53.023438 26.410156 -52.1875 27.671875 -51.4375 C 28.941406 -50.6875 30.679688 -49.972656 32.890625 -49.296875 C 35.097656 -48.628906 37.878906 -47.847656 41.234375 -46.953125 C 45.191406 -45.910156 48.722656 -44.734375 51.828125 -43.421875 C 54.929688 -42.117188 57.546875 -40.550781 59.671875 -38.71875 C 61.796875 -36.882812 63.398438 -34.734375 64.484375 -32.265625 C 65.566406 -29.804688 66.109375 -26.859375 66.109375 -23.421875 L 66.109375 -23.203125 C 66.109375 -19.316406 65.398438 -15.859375 63.984375 -12.828125 C 62.566406 -9.804688 60.585938 -7.265625 58.046875 -5.203125 C 55.503906 -3.148438 52.476562 -1.582031 48.96875 -0.5 C 45.457031 0.582031 41.570312 1.125 37.3125 1.125 Z M 37.3125 1.125 "/></g></g></g><g fill="#ffffff" fill-opacity="1"><g transform="translate(170.622972, 241.752817)"><g><path d="M 4.34375 -7.703125 C 4.613281 -7.703125 4.8125 -7.675781 4.9375 -7.625 C 5.070312 -7.582031 5.171875 -7.507812 5.234375 -7.40625 C 5.304688 -7.238281 5.34375 -7.019531 5.34375 -6.75 L 5.34375 -2.6875 C 5.34375 -1.945312 5.078125 -1.296875 4.546875 -0.734375 C 4.015625 -0.171875 3.335938 0.109375 2.515625 0.109375 C 2.046875 0.109375 1.632812 0.00390625 1.28125 -0.203125 C 0.957031 -0.378906 0.734375 -0.535156 0.609375 -0.671875 L 0.53125 -0.75 C 0.28125 -1.007812 0.15625 -1.234375 0.15625 -1.421875 C 0.15625 -1.609375 0.273438 -1.828125 0.515625 -2.078125 C 0.765625 -2.328125 0.984375 -2.453125 1.171875 -2.453125 C 1.359375 -2.453125 1.566406 -2.335938 1.796875 -2.109375 C 2.035156 -1.878906 2.289062 -1.765625 2.5625 -1.765625 C 2.832031 -1.765625 3.050781 -1.851562 3.21875 -2.03125 C 3.394531 -2.21875 3.484375 -2.460938 3.484375 -2.765625 L 3.484375 -6.6875 C 3.484375 -7.101562 3.554688 -7.375 3.703125 -7.5 C 3.859375 -7.632812 4.070312 -7.703125 4.34375 -7.703125 Z M 4.34375 -7.703125 "/></g></g></g><g fill="#ffffff" fill-opacity="1"><g transform="translate(176.389241, 241.752817)"><g><path d="M 4.03125 -7.796875 C 5.070312 -7.796875 5.972656 -7.421875 6.734375 -6.671875 C 7.492188 -5.921875 7.875 -4.988281 7.875 -3.875 C 7.875 -2.769531 7.507812 -1.828125 6.78125 -1.046875 C 6.050781 -0.265625 5.15625 0.125 4.09375 0.125 C 3.03125 0.125 2.125 -0.257812 1.375 -1.03125 C 0.632812 -1.800781 0.265625 -2.71875 0.265625 -3.78125 C 0.265625 -4.363281 0.367188 -4.90625 0.578125 -5.40625 C 0.785156 -5.914062 1.0625 -6.34375 1.40625 -6.6875 C 1.757812 -7.03125 2.164062 -7.300781 2.625 -7.5 C 3.082031 -7.695312 3.550781 -7.796875 4.03125 -7.796875 Z M 2.125 -3.828125 C 2.125 -3.203125 2.320312 -2.695312 2.71875 -2.3125 C 3.125 -1.925781 3.570312 -1.734375 4.0625 -1.734375 C 4.5625 -1.734375 5.007812 -1.921875 5.40625 -2.296875 C 5.8125 -2.671875 6.015625 -3.175781 6.015625 -3.8125 C 6.015625 -4.457031 5.8125 -4.972656 5.40625 -5.359375 C 5.007812 -5.742188 4.5625 -5.9375 4.0625 -5.9375 C 3.5625 -5.9375 3.113281 -5.738281 2.71875 -5.34375 C 2.320312 -4.957031 2.125 -4.453125 2.125 -3.828125 Z M 2.125 -3.828125 "/></g></g></g><g fill="#ffffff" fill-opacity="1"><g transform="translate(184.529229, 241.752817)"><g><path d="M 5.90625 -4.125 C 6.3125 -3.632812 6.515625 -3.085938 6.515625 -2.484375 C 6.503906 -1.773438 6.265625 -1.1875 5.796875 -0.71875 C 5.335938 -0.25 4.773438 -0.015625 4.109375 -0.015625 L 1.34375 -0.015625 C 0.851562 -0.015625 0.566406 -0.144531 0.484375 -0.40625 C 0.441406 -0.53125 0.421875 -0.710938 0.421875 -0.953125 L 0.421875 -6.78125 C 0.421875 -6.945312 0.425781 -7.066406 0.4375 -7.140625 C 0.445312 -7.222656 0.476562 -7.316406 0.53125 -7.421875 C 0.632812 -7.609375 0.910156 -7.703125 1.359375 -7.703125 L 4 -7.703125 C 4.644531 -7.703125 5.1875 -7.476562 5.625 -7.03125 C 6.070312 -6.582031 6.296875 -6.035156 6.296875 -5.390625 C 6.296875 -4.929688 6.164062 -4.507812 5.90625 -4.125 Z M 4.65625 -2.578125 C 4.65625 -2.742188 4.632812 -2.875 4.59375 -2.96875 C 4.5625 -3.070312 4.5 -3.144531 4.40625 -3.1875 C 4.269531 -3.25 4.070312 -3.28125 3.8125 -3.28125 C 3.5625 -3.28125 3.375 -3.328125 3.25 -3.421875 C 3.125 -3.515625 3.0625 -3.710938 3.0625 -4.015625 C 3.0625 -4.328125 3.125 -4.53125 3.25 -4.625 C 3.382812 -4.726562 3.601562 -4.78125 3.90625 -4.78125 C 4.1875 -4.78125 4.351562 -4.851562 4.40625 -5 C 4.425781 -5.070312 4.4375 -5.195312 4.4375 -5.375 C 4.4375 -5.550781 4.378906 -5.671875 4.265625 -5.734375 C 4.148438 -5.804688 3.976562 -5.84375 3.75 -5.84375 L 2.28125 -5.84375 L 2.28125 -1.875 L 4 -1.875 C 4.4375 -1.875 4.65625 -2.109375 4.65625 -2.578125 Z M 4.65625 -2.578125 "/></g></g></g><g fill="#ffffff" fill-opacity="1"><g transform="translate(191.314308, 241.752817)"><g/></g></g><g fill="#ffffff" fill-opacity="1"><g transform="translate(193.971619, 241.752817)"><g><path d="M 6.3125 -1.296875 C 6.414062 -1.046875 6.46875 -0.863281 6.46875 -0.75 C 6.46875 -0.488281 6.25 -0.265625 5.8125 -0.078125 C 5.59375 0.015625 5.414062 0.0625 5.28125 0.0625 C 5.144531 0.0625 5.03125 0.03125 4.9375 -0.03125 C 4.851562 -0.101562 4.789062 -0.171875 4.75 -0.234375 C 4.675781 -0.367188 4.398438 -1.003906 3.921875 -2.140625 L 3.59375 -2.125 L 2.28125 -2.125 L 2.28125 -0.9375 C 2.28125 -0.769531 2.273438 -0.644531 2.265625 -0.5625 C 2.253906 -0.488281 2.21875 -0.398438 2.15625 -0.296875 C 2.0625 -0.109375 1.789062 -0.015625 1.34375 -0.015625 C 0.851562 -0.015625 0.566406 -0.144531 0.484375 -0.40625 C 0.441406 -0.519531 0.421875 -0.695312 0.421875 -0.9375 L 0.421875 -6.765625 C 0.421875 -6.929688 0.425781 -7.050781 0.4375 -7.125 C 0.445312 -7.207031 0.476562 -7.300781 0.53125 -7.40625 C 0.632812 -7.601562 0.910156 -7.703125 1.359375 -7.703125 L 3.625 -7.703125 C 4.238281 -7.703125 4.835938 -7.476562 5.421875 -7.03125 C 5.703125 -6.8125 5.929688 -6.515625 6.109375 -6.140625 C 6.296875 -5.773438 6.390625 -5.363281 6.390625 -4.90625 C 6.390625 -4.113281 6.125 -3.460938 5.59375 -2.953125 C 5.75 -2.578125 5.988281 -2.023438 6.3125 -1.296875 Z M 2.28125 -3.984375 L 3.625 -3.984375 C 3.820312 -3.984375 4.019531 -4.054688 4.21875 -4.203125 C 4.425781 -4.359375 4.53125 -4.585938 4.53125 -4.890625 C 4.53125 -5.203125 4.425781 -5.4375 4.21875 -5.59375 C 4.019531 -5.757812 3.8125 -5.84375 3.59375 -5.84375 L 2.28125 -5.84375 Z M 2.28125 -3.984375 "/></g></g></g><g fill="#ffffff" fill-opacity="1"><g transform="translate(200.599151, 241.752817)"><g><path d="M 2.28125 -1.859375 L 5.515625 -1.859375 C 5.671875 -1.859375 5.789062 -1.851562 5.875 -1.84375 C 5.957031 -1.832031 6.050781 -1.800781 6.15625 -1.75 C 6.34375 -1.644531 6.4375 -1.367188 6.4375 -0.921875 C 6.4375 -0.429688 6.304688 -0.144531 6.046875 -0.0625 C 5.929688 -0.0195312 5.75 0 5.5 0 L 1.34375 0 C 0.851562 0 0.566406 -0.132812 0.484375 -0.40625 C 0.441406 -0.507812 0.421875 -0.6875 0.421875 -0.9375 L 0.421875 -6.765625 C 0.421875 -7.128906 0.484375 -7.375 0.609375 -7.5 C 0.742188 -7.632812 1 -7.703125 1.375 -7.703125 L 5.515625 -7.703125 C 5.671875 -7.703125 5.789062 -7.695312 5.875 -7.6875 C 5.957031 -7.675781 6.050781 -7.640625 6.15625 -7.578125 C 6.34375 -7.484375 6.4375 -7.210938 6.4375 -6.765625 C 6.4375 -6.273438 6.304688 -5.988281 6.046875 -5.90625 C 5.929688 -5.863281 5.75 -5.84375 5.5 -5.84375 L 2.28125 -5.84375 L 2.28125 -4.78125 L 4.359375 -4.78125 C 4.515625 -4.78125 4.632812 -4.773438 4.71875 -4.765625 C 4.800781 -4.753906 4.894531 -4.71875 5 -4.65625 C 5.1875 -4.5625 5.28125 -4.289062 5.28125 -3.84375 C 5.28125 -3.351562 5.144531 -3.066406 4.875 -2.984375 C 4.757812 -2.941406 4.582031 -2.921875 4.34375 -2.921875 L 2.28125 -2.921875 Z M 2.28125 -1.859375 "/></g></g></g><g fill="#ffffff" fill-opacity="1"><g transform="translate(207.300204, 241.752817)"><g><path d="M 7.484375 -2.09375 C 7.804688 -1.875 8.035156 -1.710938 8.171875 -1.609375 C 8.429688 -1.421875 8.5625 -1.238281 8.5625 -1.0625 C 8.5625 -0.894531 8.453125 -0.65625 8.234375 -0.34375 C 8.023438 -0.0390625 7.816406 0.109375 7.609375 0.109375 C 7.472656 0.109375 7.269531 0.015625 7 -0.171875 C 6.957031 -0.191406 6.851562 -0.257812 6.6875 -0.375 C 6.53125 -0.488281 6.410156 -0.570312 6.328125 -0.625 C 5.671875 -0.125 4.9375 0.125 4.125 0.125 C 3.039062 0.125 2.125 -0.257812 1.375 -1.03125 C 0.632812 -1.800781 0.265625 -2.71875 0.265625 -3.78125 C 0.265625 -4.363281 0.367188 -4.90625 0.578125 -5.40625 C 0.785156 -5.914062 1.0625 -6.34375 1.40625 -6.6875 C 1.757812 -7.03125 2.164062 -7.300781 2.625 -7.5 C 3.082031 -7.695312 3.550781 -7.796875 4.03125 -7.796875 C 5.070312 -7.796875 5.972656 -7.421875 6.734375 -6.671875 C 7.492188 -5.921875 7.875 -4.972656 7.875 -3.828125 C 7.875 -3.242188 7.742188 -2.664062 7.484375 -2.09375 Z M 2.125 -3.828125 C 2.125 -3.203125 2.320312 -2.695312 2.71875 -2.3125 C 3.125 -1.925781 3.570312 -1.734375 4.0625 -1.734375 C 4.5625 -1.734375 5.007812 -1.921875 5.40625 -2.296875 C 5.8125 -2.671875 6.015625 -3.175781 6.015625 -3.8125 C 6.015625 -4.457031 5.8125 -4.972656 5.40625 -5.359375 C 5.007812 -5.742188 4.5625 -5.9375 4.0625 -5.9375 C 3.5625 -5.9375 3.113281 -5.738281 2.71875 -5.34375 C 2.320312 -4.957031 2.125 -4.453125 2.125 -3.828125 Z M 2.125 -3.828125 "/></g></g></g><g fill="#ffffff" fill-opacity="1"><g transform="translate(216.017873, 241.752817)"><g><path d="M 5.4375 -7.40625 C 5.507812 -7.519531 5.613281 -7.597656 5.75 -7.640625 C 5.882812 -7.679688 6.050781 -7.703125 6.25 -7.703125 C 6.445312 -7.703125 6.601562 -7.6875 6.71875 -7.65625 C 6.84375 -7.625 6.9375 -7.582031 7 -7.53125 C 7.0625 -7.476562 7.109375 -7.40625 7.140625 -7.3125 C 7.179688 -7.1875 7.203125 -7.003906 7.203125 -6.765625 L 7.203125 -3.59375 C 7.203125 -2.664062 6.914062 -1.828125 6.34375 -1.078125 C 6.0625 -0.710938 5.695312 -0.421875 5.25 -0.203125 C 4.8125 0.015625 4.328125 0.125 3.796875 0.125 C 3.265625 0.125 2.78125 0.015625 2.34375 -0.203125 C 1.90625 -0.429688 1.546875 -0.726562 1.265625 -1.09375 C 0.703125 -1.832031 0.421875 -2.671875 0.421875 -3.609375 L 0.421875 -6.765625 C 0.421875 -6.941406 0.425781 -7.066406 0.4375 -7.140625 C 0.445312 -7.222656 0.476562 -7.316406 0.53125 -7.421875 C 0.59375 -7.523438 0.6875 -7.597656 0.8125 -7.640625 C 0.945312 -7.679688 1.125 -7.703125 1.34375 -7.703125 C 1.570312 -7.703125 1.753906 -7.679688 1.890625 -7.640625 C 2.023438 -7.597656 2.113281 -7.523438 2.15625 -7.421875 C 2.238281 -7.265625 2.28125 -7.046875 2.28125 -6.765625 L 2.28125 -3.609375 C 2.28125 -3.179688 2.390625 -2.773438 2.609375 -2.390625 C 2.710938 -2.191406 2.867188 -2.035156 3.078125 -1.921875 C 3.285156 -1.804688 3.535156 -1.75 3.828125 -1.75 C 4.335938 -1.75 4.71875 -1.9375 4.96875 -2.3125 C 5.21875 -2.6875 5.34375 -3.125 5.34375 -3.625 L 5.34375 -6.828125 C 5.34375 -7.109375 5.375 -7.300781 5.4375 -7.40625 Z M 5.4375 -7.40625 "/></g></g></g><g fill="#ffffff" fill-opacity="1"><g transform="translate(223.643202, 241.752817)"><g><path d="M 2.28125 -1.859375 L 5.515625 -1.859375 C 5.671875 -1.859375 5.789062 -1.851562 5.875 -1.84375 C 5.957031 -1.832031 6.050781 -1.800781 6.15625 -1.75 C 6.34375 -1.644531 6.4375 -1.367188 6.4375 -0.921875 C 6.4375 -0.429688 6.304688 -0.144531 6.046875 -0.0625 C 5.929688 -0.0195312 5.75 0 5.5 0 L 1.34375 0 C 0.851562 0 0.566406 -0.132812 0.484375 -0.40625 C 0.441406 -0.507812 0.421875 -0.6875 0.421875 -0.9375 L 0.421875 -6.765625 C 0.421875 -7.128906 0.484375 -7.375 0.609375 -7.5 C 0.742188 -7.632812 1 -7.703125 1.375 -7.703125 L 5.515625 -7.703125 C 5.671875 -7.703125 5.789062 -7.695312 5.875 -7.6875 C 5.957031 -7.675781 6.050781 -7.640625 6.15625 -7.578125 C 6.34375 -7.484375 6.4375 -7.210938 6.4375 -6.765625 C 6.4375 -6.273438 6.304688 -5.988281 6.046875 -5.90625 C 5.929688 -5.863281 5.75 -5.84375 5.5 -5.84375 L 2.28125 -5.84375 L 2.28125 -4.78125 L 4.359375 -4.78125 C 4.515625 -4.78125 4.632812 -4.773438 4.71875 -4.765625 C 4.800781 -4.753906 4.894531 -4.71875 5 -4.65625 C 5.1875 -4.5625 5.28125 -4.289062 5.28125 -3.84375 C 5.28125 -3.351562 5.144531 -3.066406 4.875 -2.984375 C 4.757812 -2.941406 4.582031 -2.921875 4.34375 -2.921875 L 2.28125 -2.921875 Z M 2.28125 -1.859375 "/></g></g></g><g fill="#ffffff" fill-opacity="1"><g transform="translate(230.344254, 241.752817)"><g><path d="M 0.53125 -1.078125 C 0.351562 -1.304688 0.265625 -1.507812 0.265625 -1.6875 C 0.265625 -1.863281 0.414062 -2.097656 0.71875 -2.390625 C 0.882812 -2.554688 1.066406 -2.640625 1.265625 -2.640625 C 1.460938 -2.640625 1.738281 -2.46875 2.09375 -2.125 C 2.1875 -2 2.320312 -1.878906 2.5 -1.765625 C 2.6875 -1.660156 2.859375 -1.609375 3.015625 -1.609375 C 3.660156 -1.609375 3.984375 -1.878906 3.984375 -2.421875 C 3.984375 -2.578125 3.894531 -2.707031 3.71875 -2.8125 C 3.539062 -2.925781 3.316406 -3.003906 3.046875 -3.046875 C 2.785156 -3.097656 2.5 -3.175781 2.1875 -3.28125 C 1.882812 -3.394531 1.597656 -3.523438 1.328125 -3.671875 C 1.066406 -3.816406 0.847656 -4.046875 0.671875 -4.359375 C 0.492188 -4.679688 0.40625 -5.066406 0.40625 -5.515625 C 0.40625 -6.140625 0.632812 -6.679688 1.09375 -7.140625 C 1.550781 -7.597656 2.175781 -7.828125 2.96875 -7.828125 C 3.382812 -7.828125 3.765625 -7.769531 4.109375 -7.65625 C 4.453125 -7.550781 4.691406 -7.441406 4.828125 -7.328125 L 5.09375 -7.125 C 5.3125 -6.925781 5.421875 -6.753906 5.421875 -6.609375 C 5.421875 -6.472656 5.335938 -6.28125 5.171875 -6.03125 C 4.929688 -5.6875 4.6875 -5.515625 4.4375 -5.515625 C 4.28125 -5.515625 4.097656 -5.582031 3.890625 -5.71875 C 3.867188 -5.738281 3.828125 -5.773438 3.765625 -5.828125 C 3.703125 -5.878906 3.644531 -5.925781 3.59375 -5.96875 C 3.445312 -6.050781 3.257812 -6.09375 3.03125 -6.09375 C 2.8125 -6.09375 2.625 -6.039062 2.46875 -5.9375 C 2.320312 -5.832031 2.25 -5.679688 2.25 -5.484375 C 2.25 -5.296875 2.335938 -5.140625 2.515625 -5.015625 C 2.691406 -4.898438 2.910156 -4.820312 3.171875 -4.78125 C 3.441406 -4.738281 3.734375 -4.671875 4.046875 -4.578125 C 4.367188 -4.492188 4.660156 -4.390625 4.921875 -4.265625 C 5.191406 -4.140625 5.414062 -3.921875 5.59375 -3.609375 C 5.769531 -3.296875 5.859375 -2.910156 5.859375 -2.453125 C 5.859375 -2.003906 5.765625 -1.601562 5.578125 -1.25 C 5.398438 -0.90625 5.164062 -0.640625 4.875 -0.453125 C 4.300781 -0.078125 3.695312 0.109375 3.0625 0.109375 C 2.726562 0.109375 2.414062 0.0664062 2.125 -0.015625 C 1.832031 -0.0976562 1.59375 -0.195312 1.40625 -0.3125 C 1.03125 -0.539062 0.769531 -0.757812 0.625 -0.96875 Z M 0.53125 -1.078125 "/></g></g></g><g fill="#ffffff" fill-opacity="1"><g transform="translate(236.467625, 241.752817)"><g><path d="M 0.921875 -7.703125 L 6.765625 -7.703125 C 6.984375 -7.703125 7.144531 -7.675781 7.25 -7.625 C 7.351562 -7.570312 7.421875 -7.488281 7.453125 -7.375 C 7.492188 -7.269531 7.515625 -7.125 7.515625 -6.9375 C 7.515625 -6.757812 7.492188 -6.613281 7.453125 -6.5 C 7.421875 -6.394531 7.363281 -6.320312 7.28125 -6.28125 C 7.15625 -6.21875 6.976562 -6.1875 6.75 -6.1875 L 4.75 -6.1875 L 4.75 -0.90625 C 4.75 -0.738281 4.742188 -0.617188 4.734375 -0.546875 C 4.722656 -0.472656 4.691406 -0.382812 4.640625 -0.28125 C 4.585938 -0.175781 4.492188 -0.101562 4.359375 -0.0625 C 4.222656 -0.0195312 4.046875 0 3.828125 0 C 3.609375 0 3.4375 -0.0195312 3.3125 -0.0625 C 3.1875 -0.101562 3.097656 -0.175781 3.046875 -0.28125 C 2.992188 -0.382812 2.957031 -0.472656 2.9375 -0.546875 C 2.925781 -0.628906 2.921875 -0.75 2.921875 -0.90625 L 2.921875 -6.1875 L 0.90625 -6.1875 C 0.6875 -6.1875 0.523438 -6.210938 0.421875 -6.265625 C 0.316406 -6.316406 0.242188 -6.394531 0.203125 -6.5 C 0.171875 -6.613281 0.15625 -6.757812 0.15625 -6.9375 C 0.15625 -7.125 0.171875 -7.269531 0.203125 -7.375 C 0.242188 -7.488281 0.304688 -7.566406 0.390625 -7.609375 C 0.515625 -7.671875 0.691406 -7.703125 0.921875 -7.703125 Z M 0.921875 -7.703125 "/></g></g></g><g fill="#ffffff" fill-opacity="1"><g transform="translate(244.14547, 241.752817)"><g/></g></g><g fill="#ffffff" fill-opacity="1"><g transform="translate(246.802781, 241.752817)"><g><path d="M 0.53125 -1.078125 C 0.351562 -1.304688 0.265625 -1.507812 0.265625 -1.6875 C 0.265625 -1.863281 0.414062 -2.097656 0.71875 -2.390625 C 0.882812 -2.554688 1.066406 -2.640625 1.265625 -2.640625 C 1.460938 -2.640625 1.738281 -2.46875 2.09375 -2.125 C 2.1875 -2 2.320312 -1.878906 2.5 -1.765625 C 2.6875 -1.660156 2.859375 -1.609375 3.015625 -1.609375 C 3.660156 -1.609375 3.984375 -1.878906 3.984375 -2.421875 C 3.984375 -2.578125 3.894531 -2.707031 3.71875 -2.8125 C 3.539062 -2.925781 3.316406 -3.003906 3.046875 -3.046875 C 2.785156 -3.097656 2.5 -3.175781 2.1875 -3.28125 C 1.882812 -3.394531 1.597656 -3.523438 1.328125 -3.671875 C 1.066406 -3.816406 0.847656 -4.046875 0.671875 -4.359375 C 0.492188 -4.679688 0.40625 -5.066406 0.40625 -5.515625 C 0.40625 -6.140625 0.632812 -6.679688 1.09375 -7.140625 C 1.550781 -7.597656 2.175781 -7.828125 2.96875 -7.828125 C 3.382812 -7.828125 3.765625 -7.769531 4.109375 -7.65625 C 4.453125 -7.550781 4.691406 -7.441406 4.828125 -7.328125 L 5.09375 -7.125 C 5.3125 -6.925781 5.421875 -6.753906 5.421875 -6.609375 C 5.421875 -6.472656 5.335938 -6.28125 5.171875 -6.03125 C 4.929688 -5.6875 4.6875 -5.515625 4.4375 -5.515625 C 4.28125 -5.515625 4.097656 -5.582031 3.890625 -5.71875 C 3.867188 -5.738281 3.828125 -5.773438 3.765625 -5.828125 C 3.703125 -5.878906 3.644531 -5.925781 3.59375 -5.96875 C 3.445312 -6.050781 3.257812 -6.09375 3.03125 -6.09375 C 2.8125 -6.09375 2.625 -6.039062 2.46875 -5.9375 C 2.320312 -5.832031 2.25 -5.679688 2.25 -5.484375 C 2.25 -5.296875 2.335938 -5.140625 2.515625 -5.015625 C 2.691406 -4.898438 2.910156 -4.820312 3.171875 -4.78125 C 3.441406 -4.738281 3.734375 -4.671875 4.046875 -4.578125 C 4.367188 -4.492188 4.660156 -4.390625 4.921875 -4.265625 C 5.191406 -4.140625 5.414062 -3.921875 5.59375 -3.609375 C 5.769531 -3.296875 5.859375 -2.910156 5.859375 -2.453125 C 5.859375 -2.003906 5.765625 -1.601562 5.578125 -1.25 C 5.398438 -0.90625 5.164062 -0.640625 4.875 -0.453125 C 4.300781 -0.078125 3.695312 0.109375 3.0625 0.109375 C 2.726562 0.109375 2.414062 0.0664062 2.125 -0.015625 C 1.832031 -0.0976562 1.59375 -0.195312 1.40625 -0.3125 C 1.03125 -0.539062 0.769531 -0.757812 0.625 -0.96875 Z M 0.53125 -1.078125 "/></g></g></g><g fill="#ffffff" fill-opacity="1"><g transform="translate(252.926152, 241.752817)"><g><path d="M 6.53125 -7.546875 C 6.875 -7.304688 7.046875 -7.078125 7.046875 -6.859375 C 7.046875 -6.722656 6.960938 -6.535156 6.796875 -6.296875 L 4.53125 -2.90625 L 4.53125 -0.90625 C 4.53125 -0.738281 4.523438 -0.613281 4.515625 -0.53125 C 4.503906 -0.457031 4.472656 -0.367188 4.421875 -0.265625 C 4.367188 -0.160156 4.273438 -0.0859375 4.140625 -0.046875 C 4.003906 -0.00390625 3.820312 0.015625 3.59375 0.015625 C 3.375 0.015625 3.195312 -0.00390625 3.0625 -0.046875 C 2.925781 -0.0859375 2.832031 -0.160156 2.78125 -0.265625 C 2.726562 -0.378906 2.695312 -0.472656 2.6875 -0.546875 C 2.675781 -0.628906 2.671875 -0.753906 2.671875 -0.921875 L 2.671875 -2.90625 L 0.40625 -6.296875 C 0.238281 -6.535156 0.15625 -6.722656 0.15625 -6.859375 C 0.15625 -7.078125 0.304688 -7.289062 0.609375 -7.5 C 0.921875 -7.707031 1.144531 -7.8125 1.28125 -7.8125 C 1.414062 -7.8125 1.519531 -7.785156 1.59375 -7.734375 C 1.71875 -7.648438 1.84375 -7.503906 1.96875 -7.296875 L 3.59375 -4.6875 L 5.234375 -7.296875 C 5.359375 -7.503906 5.46875 -7.640625 5.5625 -7.703125 C 5.664062 -7.773438 5.78125 -7.8125 5.90625 -7.8125 C 6.039062 -7.8125 6.25 -7.722656 6.53125 -7.546875 Z M 6.53125 -7.546875 "/></g></g></g><g fill="#ffffff" fill-opacity="1"><g transform="translate(260.131356, 241.752817)"><g><path d="M 0.53125 -1.078125 C 0.351562 -1.304688 0.265625 -1.507812 0.265625 -1.6875 C 0.265625 -1.863281 0.414062 -2.097656 0.71875 -2.390625 C 0.882812 -2.554688 1.066406 -2.640625 1.265625 -2.640625 C 1.460938 -2.640625 1.738281 -2.46875 2.09375 -2.125 C 2.1875 -2 2.320312 -1.878906 2.5 -1.765625 C 2.6875 -1.660156 2.859375 -1.609375 3.015625 -1.609375 C 3.660156 -1.609375 3.984375 -1.878906 3.984375 -2.421875 C 3.984375 -2.578125 3.894531 -2.707031 3.71875 -2.8125 C 3.539062 -2.925781 3.316406 -3.003906 3.046875 -3.046875 C 2.785156 -3.097656 2.5 -3.175781 2.1875 -3.28125 C 1.882812 -3.394531 1.597656 -3.523438 1.328125 -3.671875 C 1.066406 -3.816406 0.847656 -4.046875 0.671875 -4.359375 C 0.492188 -4.679688 0.40625 -5.066406 0.40625 -5.515625 C 0.40625 -6.140625 0.632812 -6.679688 1.09375 -7.140625 C 1.550781 -7.597656 2.175781 -7.828125 2.96875 -7.828125 C 3.382812 -7.828125 3.765625 -7.769531 4.109375 -7.65625 C 4.453125 -7.550781 4.691406 -7.441406 4.828125 -7.328125 L 5.09375 -7.125 C 5.3125 -6.925781 5.421875 -6.753906 5.421875 -6.609375 C 5.421875 -6.472656 5.335938 -6.28125 5.171875 -6.03125 C 4.929688 -5.6875 4.6875 -5.515625 4.4375 -5.515625 C 4.28125 -5.515625 4.097656 -5.582031 3.890625 -5.71875 C 3.867188 -5.738281 3.828125 -5.773438 3.765625 -5.828125 C 3.703125 -5.878906 3.644531 -5.925781 3.59375 -5.96875 C 3.445312 -6.050781 3.257812 -6.09375 3.03125 -6.09375 C 2.8125 -6.09375 2.625 -6.039062 2.46875 -5.9375 C 2.320312 -5.832031 2.25 -5.679688 2.25 -5.484375 C 2.25 -5.296875 2.335938 -5.140625 2.515625 -5.015625 C 2.691406 -4.898438 2.910156 -4.820312 3.171875 -4.78125 C 3.441406 -4.738281 3.734375 -4.671875 4.046875 -4.578125 C 4.367188 -4.492188 4.660156 -4.390625 4.921875 -4.265625 C 5.191406 -4.140625 5.414062 -3.921875 5.59375 -3.609375 C 5.769531 -3.296875 5.859375 -2.910156 5.859375 -2.453125 C 5.859375 -2.003906 5.765625 -1.601562 5.578125 -1.25 C 5.398438 -0.90625 5.164062 -0.640625 4.875 -0.453125 C 4.300781 -0.078125 3.695312 0.109375 3.0625 0.109375 C 2.726562 0.109375 2.414062 0.0664062 2.125 -0.015625 C 1.832031 -0.0976562 1.59375 -0.195312 1.40625 -0.3125 C 1.03125 -0.539062 0.769531 -0.757812 0.625 -0.96875 Z M 0.53125 -1.078125 "/></g></g></g><g fill="#ffffff" fill-opacity="1"><g transform="translate(266.254727, 241.752817)"><g><path d="M 0.921875 -7.703125 L 6.765625 -7.703125 C 6.984375 -7.703125 7.144531 -7.675781 7.25 -7.625 C 7.351562 -7.570312 7.421875 -7.488281 7.453125 -7.375 C 7.492188 -7.269531 7.515625 -7.125 7.515625 -6.9375 C 7.515625 -6.757812 7.492188 -6.613281 7.453125 -6.5 C 7.421875 -6.394531 7.363281 -6.320312 7.28125 -6.28125 C 7.15625 -6.21875 6.976562 -6.1875 6.75 -6.1875 L 4.75 -6.1875 L 4.75 -0.90625 C 4.75 -0.738281 4.742188 -0.617188 4.734375 -0.546875 C 4.722656 -0.472656 4.691406 -0.382812 4.640625 -0.28125 C 4.585938 -0.175781 4.492188 -0.101562 4.359375 -0.0625 C 4.222656 -0.0195312 4.046875 0 3.828125 0 C 3.609375 0 3.4375 -0.0195312 3.3125 -0.0625 C 3.1875 -0.101562 3.097656 -0.175781 3.046875 -0.28125 C 2.992188 -0.382812 2.957031 -0.472656 2.9375 -0.546875 C 2.925781 -0.628906 2.921875 -0.75 2.921875 -0.90625 L 2.921875 -6.1875 L 0.90625 -6.1875 C 0.6875 -6.1875 0.523438 -6.210938 0.421875 -6.265625 C 0.316406 -6.316406 0.242188 -6.394531 0.203125 -6.5 C 0.171875 -6.613281 0.15625 -6.757812 0.15625 -6.9375 C 0.15625 -7.125 0.171875 -7.269531 0.203125 -7.375 C 0.242188 -7.488281 0.304688 -7.566406 0.390625 -7.609375 C 0.515625 -7.671875 0.691406 -7.703125 0.921875 -7.703125 Z M 0.921875 -7.703125 "/></g></g></g><g fill="#ffffff" fill-opacity="1"><g transform="translate(273.932572, 241.752817)"><g><path d="M 2.28125 -1.859375 L 5.515625 -1.859375 C 5.671875 -1.859375 5.789062 -1.851562 5.875 -1.84375 C 5.957031 -1.832031 6.050781 -1.800781 6.15625 -1.75 C 6.34375 -1.644531 6.4375 -1.367188 6.4375 -0.921875 C 6.4375 -0.429688 6.304688 -0.144531 6.046875 -0.0625 C 5.929688 -0.0195312 5.75 0 5.5 0 L 1.34375 0 C 0.851562 0 0.566406 -0.132812 0.484375 -0.40625 C 0.441406 -0.507812 0.421875 -0.6875 0.421875 -0.9375 L 0.421875 -6.765625 C 0.421875 -7.128906 0.484375 -7.375 0.609375 -7.5 C 0.742188 -7.632812 1 -7.703125 1.375 -7.703125 L 5.515625 -7.703125 C 5.671875 -7.703125 5.789062 -7.695312 5.875 -7.6875 C 5.957031 -7.675781 6.050781 -7.640625 6.15625 -7.578125 C 6.34375 -7.484375 6.4375 -7.210938 6.4375 -6.765625 C 6.4375 -6.273438 6.304688 -5.988281 6.046875 -5.90625 C 5.929688 -5.863281 5.75 -5.84375 5.5 -5.84375 L 2.28125 -5.84375 L 2.28125 -4.78125 L 4.359375 -4.78125 C 4.515625 -4.78125 4.632812 -4.773438 4.71875 -4.765625 C 4.800781 -4.753906 4.894531 -4.71875 5 -4.65625 C 5.1875 -4.5625 5.28125 -4.289062 5.28125 -3.84375 C 5.28125 -3.351562 5.144531 -3.066406 4.875 -2.984375 C 4.757812 -2.941406 4.582031 -2.921875 4.34375 -2.921875 L 2.28125 -2.921875 Z M 2.28125 -1.859375 "/></g></g></g><g fill="#ffffff" fill-opacity="1"><g transform="translate(280.633624, 241.752817)"><g><path d="M 8.59375 -7.40625 C 8.65625 -7.300781 8.691406 -7.207031 8.703125 -7.125 C 8.710938 -7.039062 8.71875 -6.914062 8.71875 -6.75 L 8.71875 -0.921875 C 8.71875 -0.441406 8.582031 -0.160156 8.3125 -0.078125 C 8.175781 -0.0351562 8.003906 -0.015625 7.796875 -0.015625 C 7.597656 -0.015625 7.441406 -0.03125 7.328125 -0.0625 C 7.210938 -0.09375 7.125 -0.132812 7.0625 -0.1875 C 7 -0.238281 6.945312 -0.3125 6.90625 -0.40625 C 6.875 -0.519531 6.859375 -0.695312 6.859375 -0.9375 L 6.859375 -4.46875 C 6.679688 -4.25 6.425781 -3.898438 6.09375 -3.421875 C 5.757812 -2.953125 5.546875 -2.65625 5.453125 -2.53125 C 5.359375 -2.414062 5.289062 -2.332031 5.25 -2.28125 C 5.21875 -2.238281 5.132812 -2.175781 5 -2.09375 C 4.863281 -2.019531 4.71875 -1.984375 4.5625 -1.984375 C 4.40625 -1.984375 4.257812 -2.019531 4.125 -2.09375 C 4 -2.164062 3.910156 -2.238281 3.859375 -2.3125 L 3.765625 -2.421875 C 3.628906 -2.597656 3.351562 -2.972656 2.9375 -3.546875 C 2.53125 -4.117188 2.304688 -4.425781 2.265625 -4.46875 L 2.265625 -0.921875 C 2.265625 -0.765625 2.257812 -0.644531 2.25 -0.5625 C 2.238281 -0.476562 2.207031 -0.390625 2.15625 -0.296875 C 2.050781 -0.109375 1.773438 -0.015625 1.328125 -0.015625 C 0.898438 -0.015625 0.632812 -0.109375 0.53125 -0.296875 C 0.476562 -0.390625 0.445312 -0.476562 0.4375 -0.5625 C 0.425781 -0.644531 0.421875 -0.769531 0.421875 -0.9375 L 0.421875 -6.765625 C 0.421875 -6.929688 0.425781 -7.050781 0.4375 -7.125 C 0.445312 -7.207031 0.476562 -7.300781 0.53125 -7.40625 C 0.632812 -7.59375 0.910156 -7.6875 1.359375 -7.6875 C 1.546875 -7.6875 1.707031 -7.660156 1.84375 -7.609375 C 1.976562 -7.566406 2.066406 -7.519531 2.109375 -7.46875 L 2.171875 -7.40625 L 4.5625 -4.28125 C 5.75 -5.851562 6.539062 -6.894531 6.9375 -7.40625 C 7.0625 -7.59375 7.34375 -7.6875 7.78125 -7.6875 C 8.226562 -7.6875 8.5 -7.59375 8.59375 -7.40625 Z M 8.59375 -7.40625 "/></g></g></g></svg>